<?xml version="1.0" encoding="utf-8" standalone="no"?>
<!DOCTYPE svg PUBLIC "-//W3C//DTD SVG 1.1//EN"
  "http://www.w3.org/Graphics/SVG/1.1/DTD/svg11.dtd">
<!-- Created with matplotlib (https://matplotlib.org/) -->
<svg height="299.46925pt" version="1.1" viewBox="0 0 385.78125 299.46925" width="385.78125pt" xmlns="http://www.w3.org/2000/svg" xmlns:xlink="http://www.w3.org/1999/xlink">
 <defs>
  <style type="text/css">
*{stroke-linecap:butt;stroke-linejoin:round;}
  </style>
 </defs>
 <g id="figure_1">
  <g id="patch_1">
   <path d="M 0 299.46925 
L 385.78125 299.46925 
L 385.78125 0 
L 0 0 
z
" style="fill:#ffffff;"/>
  </g>
  <g id="axes_1">
   <g id="patch_2">
    <path d="M 43.78125 253.1955 
L 378.58125 253.1955 
L 378.58125 35.7555 
L 43.78125 35.7555 
z
" style="fill:#ffffff;"/>
   </g>
   <g id="patch_3">
    <path clip-path="url(#pce23442af0)" d="M 43.78125 242.841215 
L 50.75625 242.841215 
L 50.75625 62.428987 
L 43.78125 62.428987 
z
" style="fill:#ff4500;opacity:0.7;"/>
   </g>
   <g id="patch_4">
    <path clip-path="url(#pce23442af0)" d="M 43.78125 242.841215 
L 50.75625 242.841215 
L 50.75625 136.440585 
L 43.78125 136.440585 
z
" style="fill:#d3d3d3;"/>
   </g>
   <g id="patch_5">
    <path clip-path="url(#pce23442af0)" d="M 99.58125 242.841215 
L 106.55625 242.841215 
L 106.55625 80.941619 
L 99.58125 80.941619 
z
" style="fill:#ff4500;opacity:0.7;"/>
   </g>
   <g id="patch_6">
    <path clip-path="url(#pce23442af0)" d="M 155.38125 242.841215 
L 162.35625 242.841215 
L 162.35625 62.26249 
L 155.38125 62.26249 
z
" style="fill:#ff4500;opacity:0.7;"/>
   </g>
   <g id="patch_7">
    <path clip-path="url(#pce23442af0)" d="M 211.18125 242.841215 
L 218.15625 242.841215 
L 218.15625 59.197621 
L 211.18125 59.197621 
z
" style="fill:#ff4500;opacity:0.7;"/>
   </g>
   <g id="patch_8">
    <path clip-path="url(#pce23442af0)" d="M 266.98125 242.841215 
L 273.95625 242.841215 
L 273.95625 64.263352 
L 266.98125 64.263352 
z
" style="fill:#ff4500;opacity:0.7;"/>
   </g>
   <g id="patch_9">
    <path clip-path="url(#pce23442af0)" d="M 322.78125 242.841215 
L 329.75625 242.841215 
L 329.75625 200.519526 
L 322.78125 200.519526 
z
" style="fill:#ff4500;opacity:0.7;"/>
   </g>
   <g id="patch_10">
    <path clip-path="url(#pce23442af0)" d="M 50.75625 242.841215 
L 57.73125 242.841215 
L 57.73125 59.970879 
L 50.75625 59.970879 
z
" style="fill:#ff8c00;opacity:0.7;"/>
   </g>
   <g id="patch_11">
    <path clip-path="url(#pce23442af0)" d="M 50.75625 242.841215 
L 57.73125 242.841215 
L 57.73125 163.568811 
L 50.75625 163.568811 
z
" style="fill:#d3d3d3;"/>
   </g>
   <g id="patch_12">
    <path clip-path="url(#pce23442af0)" d="M 106.55625 242.841215 
L 113.53125 242.841215 
L 113.53125 43.024229 
L 106.55625 43.024229 
z
" style="fill:#ff8c00;opacity:0.7;"/>
   </g>
   <g id="patch_13">
    <path clip-path="url(#pce23442af0)" d="M 162.35625 242.841215 
L 169.33125 242.841215 
L 169.33125 73.755746 
L 162.35625 73.755746 
z
" style="fill:#ff8c00;opacity:0.7;"/>
   </g>
   <g id="patch_14">
    <path clip-path="url(#pce23442af0)" d="M 218.15625 242.841215 
L 225.13125 242.841215 
L 225.13125 61.641233 
L 218.15625 61.641233 
z
" style="fill:#ff8c00;opacity:0.7;"/>
   </g>
   <g id="patch_15">
    <path clip-path="url(#pce23442af0)" d="M 273.95625 242.841215 
L 280.93125 242.841215 
L 280.93125 48.084368 
L 273.95625 48.084368 
z
" style="fill:#ff8c00;opacity:0.7;"/>
   </g>
   <g id="patch_16">
    <path clip-path="url(#pce23442af0)" d="M 329.75625 242.841215 
L 336.73125 242.841215 
L 336.73125 78.016534 
L 329.75625 78.016534 
z
" style="fill:#ff8c00;opacity:0.7;"/>
   </g>
   <g id="patch_17">
    <path clip-path="url(#pce23442af0)" d="M 57.73125 242.841215 
L 64.70625 242.841215 
L 64.70625 61.017076 
L 57.73125 61.017076 
z
" style="fill:#ffd700;opacity:0.7;"/>
   </g>
   <g id="patch_18">
    <path clip-path="url(#pce23442af0)" d="M 57.73125 242.841215 
L 64.70625 242.841215 
L 64.70625 120.350027 
L 57.73125 120.350027 
z
" style="fill:#d3d3d3;"/>
   </g>
   <g id="patch_19">
    <path clip-path="url(#pce23442af0)" d="M 113.53125 242.841215 
L 120.50625 242.841215 
L 120.50625 47.683657 
L 113.53125 47.683657 
z
" style="fill:#ffd700;opacity:0.7;"/>
   </g>
   <g id="patch_20">
    <path clip-path="url(#pce23442af0)" d="M 169.33125 242.841215 
L 176.30625 242.841215 
L 176.30625 94.733527 
L 169.33125 94.733527 
z
" style="fill:#ffd700;opacity:0.7;"/>
   </g>
   <g id="patch_21">
    <path clip-path="url(#pce23442af0)" d="M 225.13125 242.841215 
L 232.10625 242.841215 
L 232.10625 53.212845 
L 225.13125 53.212845 
z
" style="fill:#ffd700;opacity:0.7;"/>
   </g>
   <g id="patch_22">
    <path clip-path="url(#pce23442af0)" d="M 280.93125 242.841215 
L 287.90625 242.841215 
L 287.90625 67.983232 
L 280.93125 67.983232 
z
" style="fill:#ffd700;opacity:0.7;"/>
   </g>
   <g id="patch_23">
    <path clip-path="url(#pce23442af0)" d="M 336.73125 242.841215 
L 343.70625 242.841215 
L 343.70625 67.813007 
L 336.73125 67.813007 
z
" style="fill:#ffd700;opacity:0.7;"/>
   </g>
   <g id="patch_24">
    <path clip-path="url(#pce23442af0)" d="M 64.70625 242.841215 
L 71.68125 242.841215 
L 71.68125 76.058953 
L 64.70625 76.058953 
z
" style="fill:#2e8b57;opacity:0.7;"/>
   </g>
   <g id="patch_25">
    <path clip-path="url(#pce23442af0)" d="M 64.70625 242.841215 
L 71.68125 242.841215 
L 71.68125 140.230254 
L 64.70625 140.230254 
z
" style="fill:#d3d3d3;"/>
   </g>
   <g id="patch_26">
    <path clip-path="url(#pce23442af0)" d="M 120.50625 242.841215 
L 127.48125 242.841215 
L 127.48125 113.743993 
L 120.50625 113.743993 
z
" style="fill:#2e8b57;opacity:0.7;"/>
   </g>
   <g id="patch_27">
    <path clip-path="url(#pce23442af0)" d="M 176.30625 242.841215 
L 183.28125 242.841215 
L 183.28125 75.764477 
L 176.30625 75.764477 
z
" style="fill:#2e8b57;opacity:0.7;"/>
   </g>
   <g id="patch_28">
    <path clip-path="url(#pce23442af0)" d="M 232.10625 242.841215 
L 239.08125 242.841215 
L 239.08125 73.4037 
L 232.10625 73.4037 
z
" style="fill:#2e8b57;opacity:0.7;"/>
   </g>
   <g id="patch_29">
    <path clip-path="url(#pce23442af0)" d="M 287.90625 242.841215 
L 294.88125 242.841215 
L 294.88125 52.197504 
L 287.90625 52.197504 
z
" style="fill:#2e8b57;opacity:0.7;"/>
   </g>
   <g id="patch_30">
    <path clip-path="url(#pce23442af0)" d="M 343.70625 242.841215 
L 350.68125 242.841215 
L 350.68125 95.243993 
L 343.70625 95.243993 
z
" style="fill:#2e8b57;opacity:0.7;"/>
   </g>
   <g id="patch_31">
    <path clip-path="url(#pce23442af0)" d="M 71.68125 242.841215 
L 78.65625 242.841215 
L 78.65625 68.409828 
L 71.68125 68.409828 
z
" style="fill:#1e90ff;opacity:0.7;"/>
   </g>
   <g id="patch_32">
    <path clip-path="url(#pce23442af0)" d="M 71.68125 242.841215 
L 78.65625 242.841215 
L 78.65625 147.043373 
L 71.68125 147.043373 
z
" style="fill:#d3d3d3;"/>
   </g>
   <g id="patch_33">
    <path clip-path="url(#pce23442af0)" d="M 127.48125 242.841215 
L 134.45625 242.841215 
L 134.45625 70.877255 
L 127.48125 70.877255 
z
" style="fill:#1e90ff;opacity:0.7;"/>
   </g>
   <g id="patch_34">
    <path clip-path="url(#pce23442af0)" d="M 183.28125 242.841215 
L 190.25625 242.841215 
L 190.25625 70.732295 
L 183.28125 70.732295 
z
" style="fill:#1e90ff;opacity:0.7;"/>
   </g>
   <g id="patch_35">
    <path clip-path="url(#pce23442af0)" d="M 239.08125 242.841215 
L 246.05625 242.841215 
L 246.05625 64.602558 
L 239.08125 64.602558 
z
" style="fill:#1e90ff;opacity:0.7;"/>
   </g>
   <g id="patch_36">
    <path clip-path="url(#pce23442af0)" d="M 294.88125 242.841215 
L 301.85625 242.841215 
L 301.85625 56.399065 
L 294.88125 56.399065 
z
" style="fill:#1e90ff;opacity:0.7;"/>
   </g>
   <g id="patch_37">
    <path clip-path="url(#pce23442af0)" d="M 350.68125 242.841215 
L 357.65625 242.841215 
L 357.65625 89.740483 
L 350.68125 89.740483 
z
" style="fill:#1e90ff;opacity:0.7;"/>
   </g>
   <g id="patch_38">
    <path clip-path="url(#pce23442af0)" d="M 78.65625 242.841215 
L 85.63125 242.841215 
L 85.63125 73.480529 
L 78.65625 73.480529 
z
" style="fill:#000080;opacity:0.7;"/>
   </g>
   <g id="patch_39">
    <path clip-path="url(#pce23442af0)" d="M 78.65625 242.841215 
L 85.63125 242.841215 
L 85.63125 133.872723 
L 78.65625 133.872723 
z
" style="fill:#d3d3d3;"/>
   </g>
   <g id="patch_40">
    <path clip-path="url(#pce23442af0)" d="M 134.45625 242.841215 
L 141.43125 242.841215 
L 141.43125 73.362283 
L 134.45625 73.362283 
z
" style="fill:#000080;opacity:0.7;"/>
   </g>
   <g id="patch_41">
    <path clip-path="url(#pce23442af0)" d="M 190.25625 242.841215 
L 197.23125 242.841215 
L 197.23125 99.16516 
L 190.25625 99.16516 
z
" style="fill:#000080;opacity:0.7;"/>
   </g>
   <g id="patch_42">
    <path clip-path="url(#pce23442af0)" d="M 246.05625 242.841215 
L 253.03125 242.841215 
L 253.03125 59.50825 
L 246.05625 59.50825 
z
" style="fill:#000080;opacity:0.7;"/>
   </g>
   <g id="patch_43">
    <path clip-path="url(#pce23442af0)" d="M 301.85625 242.841215 
L 308.83125 242.841215 
L 308.83125 54.662445 
L 301.85625 54.662445 
z
" style="fill:#000080;opacity:0.7;"/>
   </g>
   <g id="patch_44">
    <path clip-path="url(#pce23442af0)" d="M 357.65625 242.841215 
L 364.63125 242.841215 
L 364.63125 89.725159 
L 357.65625 89.725159 
z
" style="fill:#000080;opacity:0.7;"/>
   </g>
   <g id="patch_45">
    <path clip-path="url(#pce23442af0)" d="M 85.63125 242.841215 
L 92.60625 242.841215 
L 92.60625 59.311311 
L 85.63125 59.311311 
z
" style="fill:#663399;opacity:0.7;"/>
   </g>
   <g id="patch_46">
    <path clip-path="url(#pce23442af0)" d="M 85.63125 242.841215 
L 92.60625 242.841215 
L 92.60625 103.969548 
L 85.63125 103.969548 
z
" style="fill:#d3d3d3;"/>
   </g>
   <g id="patch_47">
    <path clip-path="url(#pce23442af0)" d="M 141.43125 242.841215 
L 148.40625 242.841215 
L 148.40625 72.306146 
L 141.43125 72.306146 
z
" style="fill:#663399;opacity:0.7;"/>
   </g>
   <g id="patch_48">
    <path clip-path="url(#pce23442af0)" d="M 197.23125 242.841215 
L 204.20625 242.841215 
L 204.20625 80.775951 
L 197.23125 80.775951 
z
" style="fill:#663399;opacity:0.7;"/>
   </g>
   <g id="patch_49">
    <path clip-path="url(#pce23442af0)" d="M 253.03125 242.841215 
L 260.00625 242.841215 
L 260.00625 50.189394 
L 253.03125 50.189394 
z
" style="fill:#663399;opacity:0.7;"/>
   </g>
   <g id="patch_50">
    <path clip-path="url(#pce23442af0)" d="M 308.83125 242.841215 
L 315.80625 242.841215 
L 315.80625 59.536621 
L 308.83125 59.536621 
z
" style="fill:#663399;opacity:0.7;"/>
   </g>
   <g id="patch_51">
    <path clip-path="url(#pce23442af0)" d="M 364.63125 242.841215 
L 371.60625 242.841215 
L 371.60625 189.788345 
L 364.63125 189.788345 
z
" style="fill:#663399;opacity:0.7;"/>
   </g>
   <g id="patch_52">
    <path clip-path="url(#pce23442af0)" d="M 92.60625 242.841215 
L 99.58125 242.841215 
L 99.58125 67.41064 
L 92.60625 67.41064 
z
" style="fill:#c71585;opacity:0.7;"/>
   </g>
   <g id="patch_53">
    <path clip-path="url(#pce23442af0)" d="M 92.60625 242.841215 
L 99.58125 242.841215 
L 99.58125 102.540657 
L 92.60625 102.540657 
z
" style="fill:#d3d3d3;"/>
   </g>
   <g id="patch_54">
    <path clip-path="url(#pce23442af0)" d="M 148.40625 242.841215 
L 155.38125 242.841215 
L 155.38125 114.158165 
L 148.40625 114.158165 
z
" style="fill:#c71585;opacity:0.7;"/>
   </g>
   <g id="patch_55">
    <path clip-path="url(#pce23442af0)" d="M 204.20625 242.841215 
L 211.18125 242.841215 
L 211.18125 57.851564 
L 204.20625 57.851564 
z
" style="fill:#c71585;opacity:0.7;"/>
   </g>
   <g id="patch_56">
    <path clip-path="url(#pce23442af0)" d="M 260.00625 242.841215 
L 266.98125 242.841215 
L 266.98125 74.1285 
L 260.00625 74.1285 
z
" style="fill:#c71585;opacity:0.7;"/>
   </g>
   <g id="patch_57">
    <path clip-path="url(#pce23442af0)" d="M 315.80625 242.841215 
L 322.78125 242.841215 
L 322.78125 96.38255 
L 315.80625 96.38255 
z
" style="fill:#c71585;opacity:0.7;"/>
   </g>
   <g id="patch_58">
    <path clip-path="url(#pce23442af0)" d="M 371.60625 242.841215 
L 378.58125 242.841215 
L 378.58125 152.740508 
L 371.60625 152.740508 
z
" style="fill:#c71585;opacity:0.7;"/>
   </g>
   <g id="matplotlib.axis_1">
    <g id="xtick_1">
     <g id="line2d_1">
      <defs>
       <path d="M 0 0 
L 0 3.5 
" id="m958d7e86ee" style="stroke:#000000;stroke-width:0.8;"/>
      </defs>
      <g>
       <use style="stroke:#000000;stroke-width:0.8;" x="71.68125" xlink:href="#m958d7e86ee" y="253.1955"/>
      </g>
     </g>
     <g id="text_1">
      <!-- Coordination -->
      <defs>
       <path d="M 64.40625 67.28125 
L 64.40625 56.890625 
Q 59.421875 61.53125 53.78125 63.8125 
Q 48.140625 66.109375 41.796875 66.109375 
Q 29.296875 66.109375 22.65625 58.46875 
Q 16.015625 50.828125 16.015625 36.375 
Q 16.015625 21.96875 22.65625 14.328125 
Q 29.296875 6.6875 41.796875 6.6875 
Q 48.140625 6.6875 53.78125 8.984375 
Q 59.421875 11.28125 64.40625 15.921875 
L 64.40625 5.609375 
Q 59.234375 2.09375 53.4375 0.328125 
Q 47.65625 -1.421875 41.21875 -1.421875 
Q 24.65625 -1.421875 15.125 8.703125 
Q 5.609375 18.84375 5.609375 36.375 
Q 5.609375 53.953125 15.125 64.078125 
Q 24.65625 74.21875 41.21875 74.21875 
Q 47.75 74.21875 53.53125 72.484375 
Q 59.328125 70.75 64.40625 67.28125 
z
" id="DejaVuSans-67"/>
       <path d="M 30.609375 48.390625 
Q 23.390625 48.390625 19.1875 42.75 
Q 14.984375 37.109375 14.984375 27.296875 
Q 14.984375 17.484375 19.15625 11.84375 
Q 23.34375 6.203125 30.609375 6.203125 
Q 37.796875 6.203125 41.984375 11.859375 
Q 46.1875 17.53125 46.1875 27.296875 
Q 46.1875 37.015625 41.984375 42.703125 
Q 37.796875 48.390625 30.609375 48.390625 
z
M 30.609375 56 
Q 42.328125 56 49.015625 48.375 
Q 55.71875 40.765625 55.71875 27.296875 
Q 55.71875 13.875 49.015625 6.21875 
Q 42.328125 -1.421875 30.609375 -1.421875 
Q 18.84375 -1.421875 12.171875 6.21875 
Q 5.515625 13.875 5.515625 27.296875 
Q 5.515625 40.765625 12.171875 48.375 
Q 18.84375 56 30.609375 56 
z
" id="DejaVuSans-111"/>
       <path d="M 41.109375 46.296875 
Q 39.59375 47.171875 37.8125 47.578125 
Q 36.03125 48 33.890625 48 
Q 26.265625 48 22.1875 43.046875 
Q 18.109375 38.09375 18.109375 28.8125 
L 18.109375 0 
L 9.078125 0 
L 9.078125 54.6875 
L 18.109375 54.6875 
L 18.109375 46.1875 
Q 20.953125 51.171875 25.484375 53.578125 
Q 30.03125 56 36.53125 56 
Q 37.453125 56 38.578125 55.875 
Q 39.703125 55.765625 41.0625 55.515625 
z
" id="DejaVuSans-114"/>
       <path d="M 45.40625 46.390625 
L 45.40625 75.984375 
L 54.390625 75.984375 
L 54.390625 0 
L 45.40625 0 
L 45.40625 8.203125 
Q 42.578125 3.328125 38.25 0.953125 
Q 33.9375 -1.421875 27.875 -1.421875 
Q 17.96875 -1.421875 11.734375 6.484375 
Q 5.515625 14.40625 5.515625 27.296875 
Q 5.515625 40.1875 11.734375 48.09375 
Q 17.96875 56 27.875 56 
Q 33.9375 56 38.25 53.625 
Q 42.578125 51.265625 45.40625 46.390625 
z
M 14.796875 27.296875 
Q 14.796875 17.390625 18.875 11.75 
Q 22.953125 6.109375 30.078125 6.109375 
Q 37.203125 6.109375 41.296875 11.75 
Q 45.40625 17.390625 45.40625 27.296875 
Q 45.40625 37.203125 41.296875 42.84375 
Q 37.203125 48.484375 30.078125 48.484375 
Q 22.953125 48.484375 18.875 42.84375 
Q 14.796875 37.203125 14.796875 27.296875 
z
" id="DejaVuSans-100"/>
       <path d="M 9.421875 54.6875 
L 18.40625 54.6875 
L 18.40625 0 
L 9.421875 0 
z
M 9.421875 75.984375 
L 18.40625 75.984375 
L 18.40625 64.59375 
L 9.421875 64.59375 
z
" id="DejaVuSans-105"/>
       <path d="M 54.890625 33.015625 
L 54.890625 0 
L 45.90625 0 
L 45.90625 32.71875 
Q 45.90625 40.484375 42.875 44.328125 
Q 39.84375 48.1875 33.796875 48.1875 
Q 26.515625 48.1875 22.3125 43.546875 
Q 18.109375 38.921875 18.109375 30.90625 
L 18.109375 0 
L 9.078125 0 
L 9.078125 54.6875 
L 18.109375 54.6875 
L 18.109375 46.1875 
Q 21.34375 51.125 25.703125 53.5625 
Q 30.078125 56 35.796875 56 
Q 45.21875 56 50.046875 50.171875 
Q 54.890625 44.34375 54.890625 33.015625 
z
" id="DejaVuSans-110"/>
       <path d="M 34.28125 27.484375 
Q 23.390625 27.484375 19.1875 25 
Q 14.984375 22.515625 14.984375 16.5 
Q 14.984375 11.71875 18.140625 8.90625 
Q 21.296875 6.109375 26.703125 6.109375 
Q 34.1875 6.109375 38.703125 11.40625 
Q 43.21875 16.703125 43.21875 25.484375 
L 43.21875 27.484375 
z
M 52.203125 31.203125 
L 52.203125 0 
L 43.21875 0 
L 43.21875 8.296875 
Q 40.140625 3.328125 35.546875 0.953125 
Q 30.953125 -1.421875 24.3125 -1.421875 
Q 15.921875 -1.421875 10.953125 3.296875 
Q 6 8.015625 6 15.921875 
Q 6 25.140625 12.171875 29.828125 
Q 18.359375 34.515625 30.609375 34.515625 
L 43.21875 34.515625 
L 43.21875 35.40625 
Q 43.21875 41.609375 39.140625 45 
Q 35.0625 48.390625 27.6875 48.390625 
Q 23 48.390625 18.546875 47.265625 
Q 14.109375 46.140625 10.015625 43.890625 
L 10.015625 52.203125 
Q 14.9375 54.109375 19.578125 55.046875 
Q 24.21875 56 28.609375 56 
Q 40.484375 56 46.34375 49.84375 
Q 52.203125 43.703125 52.203125 31.203125 
z
" id="DejaVuSans-97"/>
       <path d="M 18.3125 70.21875 
L 18.3125 54.6875 
L 36.8125 54.6875 
L 36.8125 47.703125 
L 18.3125 47.703125 
L 18.3125 18.015625 
Q 18.3125 11.328125 20.140625 9.421875 
Q 21.96875 7.515625 27.59375 7.515625 
L 36.8125 7.515625 
L 36.8125 0 
L 27.59375 0 
Q 17.1875 0 13.234375 3.875 
Q 9.28125 7.765625 9.28125 18.015625 
L 9.28125 47.703125 
L 2.6875 47.703125 
L 2.6875 54.6875 
L 9.28125 54.6875 
L 9.28125 70.21875 
z
" id="DejaVuSans-116"/>
      </defs>
      <g transform="translate(39.729688 267.793937)scale(0.1 -0.1)">
       <use xlink:href="#DejaVuSans-67"/>
       <use x="69.824219" xlink:href="#DejaVuSans-111"/>
       <use x="131.005859" xlink:href="#DejaVuSans-111"/>
       <use x="192.1875" xlink:href="#DejaVuSans-114"/>
       <use x="231.550781" xlink:href="#DejaVuSans-100"/>
       <use x="295.027344" xlink:href="#DejaVuSans-105"/>
       <use x="322.810547" xlink:href="#DejaVuSans-110"/>
       <use x="386.189453" xlink:href="#DejaVuSans-97"/>
       <use x="447.46875" xlink:href="#DejaVuSans-116"/>
       <use x="486.677734" xlink:href="#DejaVuSans-105"/>
       <use x="514.460938" xlink:href="#DejaVuSans-111"/>
       <use x="575.642578" xlink:href="#DejaVuSans-110"/>
      </g>
      <!--  Number (CN) -->
      <defs>
       <path id="DejaVuSans-32"/>
       <path d="M 9.8125 72.90625 
L 23.09375 72.90625 
L 55.421875 11.921875 
L 55.421875 72.90625 
L 64.984375 72.90625 
L 64.984375 0 
L 51.703125 0 
L 19.390625 60.984375 
L 19.390625 0 
L 9.8125 0 
z
" id="DejaVuSans-78"/>
       <path d="M 8.5 21.578125 
L 8.5 54.6875 
L 17.484375 54.6875 
L 17.484375 21.921875 
Q 17.484375 14.15625 20.5 10.265625 
Q 23.53125 6.390625 29.59375 6.390625 
Q 36.859375 6.390625 41.078125 11.03125 
Q 45.3125 15.671875 45.3125 23.6875 
L 45.3125 54.6875 
L 54.296875 54.6875 
L 54.296875 0 
L 45.3125 0 
L 45.3125 8.40625 
Q 42.046875 3.421875 37.71875 1 
Q 33.40625 -1.421875 27.6875 -1.421875 
Q 18.265625 -1.421875 13.375 4.4375 
Q 8.5 10.296875 8.5 21.578125 
z
M 31.109375 56 
z
" id="DejaVuSans-117"/>
       <path d="M 52 44.1875 
Q 55.375 50.25 60.0625 53.125 
Q 64.75 56 71.09375 56 
Q 79.640625 56 84.28125 50.015625 
Q 88.921875 44.046875 88.921875 33.015625 
L 88.921875 0 
L 79.890625 0 
L 79.890625 32.71875 
Q 79.890625 40.578125 77.09375 44.375 
Q 74.3125 48.1875 68.609375 48.1875 
Q 61.625 48.1875 57.5625 43.546875 
Q 53.515625 38.921875 53.515625 30.90625 
L 53.515625 0 
L 44.484375 0 
L 44.484375 32.71875 
Q 44.484375 40.625 41.703125 44.40625 
Q 38.921875 48.1875 33.109375 48.1875 
Q 26.21875 48.1875 22.15625 43.53125 
Q 18.109375 38.875 18.109375 30.90625 
L 18.109375 0 
L 9.078125 0 
L 9.078125 54.6875 
L 18.109375 54.6875 
L 18.109375 46.1875 
Q 21.1875 51.21875 25.484375 53.609375 
Q 29.78125 56 35.6875 56 
Q 41.65625 56 45.828125 52.96875 
Q 50 49.953125 52 44.1875 
z
" id="DejaVuSans-109"/>
       <path d="M 48.6875 27.296875 
Q 48.6875 37.203125 44.609375 42.84375 
Q 40.53125 48.484375 33.40625 48.484375 
Q 26.265625 48.484375 22.1875 42.84375 
Q 18.109375 37.203125 18.109375 27.296875 
Q 18.109375 17.390625 22.1875 11.75 
Q 26.265625 6.109375 33.40625 6.109375 
Q 40.53125 6.109375 44.609375 11.75 
Q 48.6875 17.390625 48.6875 27.296875 
z
M 18.109375 46.390625 
Q 20.953125 51.265625 25.265625 53.625 
Q 29.59375 56 35.59375 56 
Q 45.5625 56 51.78125 48.09375 
Q 58.015625 40.1875 58.015625 27.296875 
Q 58.015625 14.40625 51.78125 6.484375 
Q 45.5625 -1.421875 35.59375 -1.421875 
Q 29.59375 -1.421875 25.265625 0.953125 
Q 20.953125 3.328125 18.109375 8.203125 
L 18.109375 0 
L 9.078125 0 
L 9.078125 75.984375 
L 18.109375 75.984375 
z
" id="DejaVuSans-98"/>
       <path d="M 56.203125 29.59375 
L 56.203125 25.203125 
L 14.890625 25.203125 
Q 15.484375 15.921875 20.484375 11.0625 
Q 25.484375 6.203125 34.421875 6.203125 
Q 39.59375 6.203125 44.453125 7.46875 
Q 49.3125 8.734375 54.109375 11.28125 
L 54.109375 2.78125 
Q 49.265625 0.734375 44.1875 -0.34375 
Q 39.109375 -1.421875 33.890625 -1.421875 
Q 20.796875 -1.421875 13.15625 6.1875 
Q 5.515625 13.8125 5.515625 26.8125 
Q 5.515625 40.234375 12.765625 48.109375 
Q 20.015625 56 32.328125 56 
Q 43.359375 56 49.78125 48.890625 
Q 56.203125 41.796875 56.203125 29.59375 
z
M 47.21875 32.234375 
Q 47.125 39.59375 43.09375 43.984375 
Q 39.0625 48.390625 32.421875 48.390625 
Q 24.90625 48.390625 20.390625 44.140625 
Q 15.875 39.890625 15.1875 32.171875 
z
" id="DejaVuSans-101"/>
       <path d="M 31 75.875 
Q 24.46875 64.65625 21.28125 53.65625 
Q 18.109375 42.671875 18.109375 31.390625 
Q 18.109375 20.125 21.3125 9.0625 
Q 24.515625 -2 31 -13.1875 
L 23.1875 -13.1875 
Q 15.875 -1.703125 12.234375 9.375 
Q 8.59375 20.453125 8.59375 31.390625 
Q 8.59375 42.28125 12.203125 53.3125 
Q 15.828125 64.359375 23.1875 75.875 
z
" id="DejaVuSans-40"/>
       <path d="M 8.015625 75.875 
L 15.828125 75.875 
Q 23.140625 64.359375 26.78125 53.3125 
Q 30.421875 42.28125 30.421875 31.390625 
Q 30.421875 20.453125 26.78125 9.375 
Q 23.140625 -1.703125 15.828125 -13.1875 
L 8.015625 -13.1875 
Q 14.5 -2 17.703125 9.0625 
Q 20.90625 20.125 20.90625 31.390625 
Q 20.90625 42.671875 17.703125 53.65625 
Q 14.5 64.65625 8.015625 75.875 
z
" id="DejaVuSans-41"/>
      </defs>
      <g transform="translate(37.283594 278.99175)scale(0.1 -0.1)">
       <use xlink:href="#DejaVuSans-32"/>
       <use x="31.787109" xlink:href="#DejaVuSans-78"/>
       <use x="106.591797" xlink:href="#DejaVuSans-117"/>
       <use x="169.970703" xlink:href="#DejaVuSans-109"/>
       <use x="267.382812" xlink:href="#DejaVuSans-98"/>
       <use x="330.859375" xlink:href="#DejaVuSans-101"/>
       <use x="392.382812" xlink:href="#DejaVuSans-114"/>
       <use x="433.496094" xlink:href="#DejaVuSans-32"/>
       <use x="465.283203" xlink:href="#DejaVuSans-40"/>
       <use x="504.296875" xlink:href="#DejaVuSans-67"/>
       <use x="574.121094" xlink:href="#DejaVuSans-78"/>
       <use x="648.925781" xlink:href="#DejaVuSans-41"/>
      </g>
      <!--  Accuracy -->
      <defs>
       <path d="M 34.1875 63.1875 
L 20.796875 26.90625 
L 47.609375 26.90625 
z
M 28.609375 72.90625 
L 39.796875 72.90625 
L 67.578125 0 
L 57.328125 0 
L 50.6875 18.703125 
L 17.828125 18.703125 
L 11.1875 0 
L 0.78125 0 
z
" id="DejaVuSans-65"/>
       <path d="M 48.78125 52.59375 
L 48.78125 44.1875 
Q 44.96875 46.296875 41.140625 47.34375 
Q 37.3125 48.390625 33.40625 48.390625 
Q 24.65625 48.390625 19.8125 42.84375 
Q 14.984375 37.3125 14.984375 27.296875 
Q 14.984375 17.28125 19.8125 11.734375 
Q 24.65625 6.203125 33.40625 6.203125 
Q 37.3125 6.203125 41.140625 7.25 
Q 44.96875 8.296875 48.78125 10.40625 
L 48.78125 2.09375 
Q 45.015625 0.34375 40.984375 -0.53125 
Q 36.96875 -1.421875 32.421875 -1.421875 
Q 20.0625 -1.421875 12.78125 6.34375 
Q 5.515625 14.109375 5.515625 27.296875 
Q 5.515625 40.671875 12.859375 48.328125 
Q 20.21875 56 33.015625 56 
Q 37.15625 56 41.109375 55.140625 
Q 45.0625 54.296875 48.78125 52.59375 
z
" id="DejaVuSans-99"/>
       <path d="M 32.171875 -5.078125 
Q 28.375 -14.84375 24.75 -17.8125 
Q 21.140625 -20.796875 15.09375 -20.796875 
L 7.90625 -20.796875 
L 7.90625 -13.28125 
L 13.1875 -13.28125 
Q 16.890625 -13.28125 18.9375 -11.515625 
Q 21 -9.765625 23.484375 -3.21875 
L 25.09375 0.875 
L 2.984375 54.6875 
L 12.5 54.6875 
L 29.59375 11.921875 
L 46.6875 54.6875 
L 56.203125 54.6875 
z
" id="DejaVuSans-121"/>
      </defs>
      <g transform="translate(47.264063 290.189562)scale(0.1 -0.1)">
       <use xlink:href="#DejaVuSans-32"/>
       <use x="31.787109" xlink:href="#DejaVuSans-65"/>
       <use x="98.445312" xlink:href="#DejaVuSans-99"/>
       <use x="153.425781" xlink:href="#DejaVuSans-99"/>
       <use x="208.40625" xlink:href="#DejaVuSans-117"/>
       <use x="271.785156" xlink:href="#DejaVuSans-114"/>
       <use x="312.898438" xlink:href="#DejaVuSans-97"/>
       <use x="374.177734" xlink:href="#DejaVuSans-99"/>
       <use x="429.158203" xlink:href="#DejaVuSans-121"/>
      </g>
     </g>
    </g>
    <g id="xtick_2">
     <g id="line2d_2">
      <g>
       <use style="stroke:#000000;stroke-width:0.8;" x="127.48125" xlink:href="#m958d7e86ee" y="253.1955"/>
      </g>
     </g>
     <g id="text_2">
      <!-- F1 -->
      <defs>
       <path d="M 9.8125 72.90625 
L 51.703125 72.90625 
L 51.703125 64.59375 
L 19.671875 64.59375 
L 19.671875 43.109375 
L 48.578125 43.109375 
L 48.578125 34.8125 
L 19.671875 34.8125 
L 19.671875 0 
L 9.8125 0 
z
" id="DejaVuSans-70"/>
       <path d="M 12.40625 8.296875 
L 28.515625 8.296875 
L 28.515625 63.921875 
L 10.984375 60.40625 
L 10.984375 69.390625 
L 28.421875 72.90625 
L 38.28125 72.90625 
L 38.28125 8.296875 
L 54.390625 8.296875 
L 54.390625 0 
L 12.40625 0 
z
" id="DejaVuSans-49"/>
      </defs>
      <g transform="translate(121.424219 267.793937)scale(0.1 -0.1)">
       <use xlink:href="#DejaVuSans-70"/>
       <use x="57.519531" xlink:href="#DejaVuSans-49"/>
      </g>
      <!-- (CN=4) -->
      <defs>
       <path d="M 10.59375 45.40625 
L 73.1875 45.40625 
L 73.1875 37.203125 
L 10.59375 37.203125 
z
M 10.59375 25.484375 
L 73.1875 25.484375 
L 73.1875 17.1875 
L 10.59375 17.1875 
z
" id="DejaVuSans-61"/>
       <path d="M 37.796875 64.3125 
L 12.890625 25.390625 
L 37.796875 25.390625 
z
M 35.203125 72.90625 
L 47.609375 72.90625 
L 47.609375 25.390625 
L 58.015625 25.390625 
L 58.015625 17.1875 
L 47.609375 17.1875 
L 47.609375 0 
L 37.796875 0 
L 37.796875 17.1875 
L 4.890625 17.1875 
L 4.890625 26.703125 
z
" id="DejaVuSans-52"/>
      </defs>
      <g transform="translate(108.976562 278.99175)scale(0.1 -0.1)">
       <use xlink:href="#DejaVuSans-40"/>
       <use x="39.013672" xlink:href="#DejaVuSans-67"/>
       <use x="108.837891" xlink:href="#DejaVuSans-78"/>
       <use x="183.642578" xlink:href="#DejaVuSans-61"/>
       <use x="267.431641" xlink:href="#DejaVuSans-52"/>
       <use x="331.054688" xlink:href="#DejaVuSans-41"/>
      </g>
     </g>
    </g>
    <g id="xtick_3">
     <g id="line2d_3">
      <g>
       <use style="stroke:#000000;stroke-width:0.8;" x="183.28125" xlink:href="#m958d7e86ee" y="253.1955"/>
      </g>
     </g>
     <g id="text_3">
      <!-- F1 -->
      <g transform="translate(177.224219 267.793937)scale(0.1 -0.1)">
       <use xlink:href="#DejaVuSans-70"/>
       <use x="57.519531" xlink:href="#DejaVuSans-49"/>
      </g>
      <!-- (CN=5) -->
      <defs>
       <path d="M 10.796875 72.90625 
L 49.515625 72.90625 
L 49.515625 64.59375 
L 19.828125 64.59375 
L 19.828125 46.734375 
Q 21.96875 47.46875 24.109375 47.828125 
Q 26.265625 48.1875 28.421875 48.1875 
Q 40.625 48.1875 47.75 41.5 
Q 54.890625 34.8125 54.890625 23.390625 
Q 54.890625 11.625 47.5625 5.09375 
Q 40.234375 -1.421875 26.90625 -1.421875 
Q 22.3125 -1.421875 17.546875 -0.640625 
Q 12.796875 0.140625 7.71875 1.703125 
L 7.71875 11.625 
Q 12.109375 9.234375 16.796875 8.0625 
Q 21.484375 6.890625 26.703125 6.890625 
Q 35.15625 6.890625 40.078125 11.328125 
Q 45.015625 15.765625 45.015625 23.390625 
Q 45.015625 31 40.078125 35.4375 
Q 35.15625 39.890625 26.703125 39.890625 
Q 22.75 39.890625 18.8125 39.015625 
Q 14.890625 38.140625 10.796875 36.28125 
z
" id="DejaVuSans-53"/>
      </defs>
      <g transform="translate(164.776563 278.99175)scale(0.1 -0.1)">
       <use xlink:href="#DejaVuSans-40"/>
       <use x="39.013672" xlink:href="#DejaVuSans-67"/>
       <use x="108.837891" xlink:href="#DejaVuSans-78"/>
       <use x="183.642578" xlink:href="#DejaVuSans-61"/>
       <use x="267.431641" xlink:href="#DejaVuSans-53"/>
       <use x="331.054688" xlink:href="#DejaVuSans-41"/>
      </g>
     </g>
    </g>
    <g id="xtick_4">
     <g id="line2d_4">
      <g>
       <use style="stroke:#000000;stroke-width:0.8;" x="239.08125" xlink:href="#m958d7e86ee" y="253.1955"/>
      </g>
     </g>
     <g id="text_4">
      <!-- F1 -->
      <g transform="translate(233.024219 267.793937)scale(0.1 -0.1)">
       <use xlink:href="#DejaVuSans-70"/>
       <use x="57.519531" xlink:href="#DejaVuSans-49"/>
      </g>
      <!-- (CN=6) -->
      <defs>
       <path d="M 33.015625 40.375 
Q 26.375 40.375 22.484375 35.828125 
Q 18.609375 31.296875 18.609375 23.390625 
Q 18.609375 15.53125 22.484375 10.953125 
Q 26.375 6.390625 33.015625 6.390625 
Q 39.65625 6.390625 43.53125 10.953125 
Q 47.40625 15.53125 47.40625 23.390625 
Q 47.40625 31.296875 43.53125 35.828125 
Q 39.65625 40.375 33.015625 40.375 
z
M 52.59375 71.296875 
L 52.59375 62.3125 
Q 48.875 64.0625 45.09375 64.984375 
Q 41.3125 65.921875 37.59375 65.921875 
Q 27.828125 65.921875 22.671875 59.328125 
Q 17.53125 52.734375 16.796875 39.40625 
Q 19.671875 43.65625 24.015625 45.921875 
Q 28.375 48.1875 33.59375 48.1875 
Q 44.578125 48.1875 50.953125 41.515625 
Q 57.328125 34.859375 57.328125 23.390625 
Q 57.328125 12.15625 50.6875 5.359375 
Q 44.046875 -1.421875 33.015625 -1.421875 
Q 20.359375 -1.421875 13.671875 8.265625 
Q 6.984375 17.96875 6.984375 36.375 
Q 6.984375 53.65625 15.1875 63.9375 
Q 23.390625 74.21875 37.203125 74.21875 
Q 40.921875 74.21875 44.703125 73.484375 
Q 48.484375 72.75 52.59375 71.296875 
z
" id="DejaVuSans-54"/>
      </defs>
      <g transform="translate(220.576562 278.99175)scale(0.1 -0.1)">
       <use xlink:href="#DejaVuSans-40"/>
       <use x="39.013672" xlink:href="#DejaVuSans-67"/>
       <use x="108.837891" xlink:href="#DejaVuSans-78"/>
       <use x="183.642578" xlink:href="#DejaVuSans-61"/>
       <use x="267.431641" xlink:href="#DejaVuSans-54"/>
       <use x="331.054688" xlink:href="#DejaVuSans-41"/>
      </g>
     </g>
    </g>
    <g id="xtick_5">
     <g id="line2d_5">
      <g>
       <use style="stroke:#000000;stroke-width:0.8;" x="294.88125" xlink:href="#m958d7e86ee" y="253.1955"/>
      </g>
     </g>
     <g id="text_5">
      <!-- Mean NN. -->
      <defs>
       <path d="M 9.8125 72.90625 
L 24.515625 72.90625 
L 43.109375 23.296875 
L 61.8125 72.90625 
L 76.515625 72.90625 
L 76.515625 0 
L 66.890625 0 
L 66.890625 64.015625 
L 48.09375 14.015625 
L 38.1875 14.015625 
L 19.390625 64.015625 
L 19.390625 0 
L 9.8125 0 
z
" id="DejaVuSans-77"/>
       <path d="M 10.6875 12.40625 
L 21 12.40625 
L 21 0 
L 10.6875 0 
z
" id="DejaVuSans-46"/>
      </defs>
      <g transform="translate(270.598438 267.793937)scale(0.1 -0.1)">
       <use xlink:href="#DejaVuSans-77"/>
       <use x="86.279297" xlink:href="#DejaVuSans-101"/>
       <use x="147.802734" xlink:href="#DejaVuSans-97"/>
       <use x="209.082031" xlink:href="#DejaVuSans-110"/>
       <use x="272.460938" xlink:href="#DejaVuSans-32"/>
       <use x="304.248047" xlink:href="#DejaVuSans-78"/>
       <use x="379.052734" xlink:href="#DejaVuSans-78"/>
       <use x="453.857422" xlink:href="#DejaVuSans-46"/>
      </g>
      <!-- Dist. $R^2$ -->
      <defs>
       <path d="M 19.671875 64.796875 
L 19.671875 8.109375 
L 31.59375 8.109375 
Q 46.6875 8.109375 53.6875 14.9375 
Q 60.6875 21.78125 60.6875 36.53125 
Q 60.6875 51.171875 53.6875 57.984375 
Q 46.6875 64.796875 31.59375 64.796875 
z
M 9.8125 72.90625 
L 30.078125 72.90625 
Q 51.265625 72.90625 61.171875 64.09375 
Q 71.09375 55.28125 71.09375 36.53125 
Q 71.09375 17.671875 61.125 8.828125 
Q 51.171875 0 30.078125 0 
L 9.8125 0 
z
" id="DejaVuSans-68"/>
       <path d="M 44.28125 53.078125 
L 44.28125 44.578125 
Q 40.484375 46.53125 36.375 47.5 
Q 32.28125 48.484375 27.875 48.484375 
Q 21.1875 48.484375 17.84375 46.4375 
Q 14.5 44.390625 14.5 40.28125 
Q 14.5 37.15625 16.890625 35.375 
Q 19.28125 33.59375 26.515625 31.984375 
L 29.59375 31.296875 
Q 39.15625 29.25 43.1875 25.515625 
Q 47.21875 21.78125 47.21875 15.09375 
Q 47.21875 7.46875 41.1875 3.015625 
Q 35.15625 -1.421875 24.609375 -1.421875 
Q 20.21875 -1.421875 15.453125 -0.5625 
Q 10.6875 0.296875 5.421875 2 
L 5.421875 11.28125 
Q 10.40625 8.6875 15.234375 7.390625 
Q 20.0625 6.109375 24.8125 6.109375 
Q 31.15625 6.109375 34.5625 8.28125 
Q 37.984375 10.453125 37.984375 14.40625 
Q 37.984375 18.0625 35.515625 20.015625 
Q 33.0625 21.96875 24.703125 23.78125 
L 21.578125 24.515625 
Q 13.234375 26.265625 9.515625 29.90625 
Q 5.8125 33.546875 5.8125 39.890625 
Q 5.8125 47.609375 11.28125 51.796875 
Q 16.75 56 26.8125 56 
Q 31.78125 56 36.171875 55.265625 
Q 40.578125 54.546875 44.28125 53.078125 
z
" id="DejaVuSans-115"/>
       <path d="M 25.203125 64.796875 
L 20.21875 38.921875 
L 32.90625 38.921875 
Q 40.375 38.921875 44.984375 43.046875 
Q 49.609375 47.171875 49.609375 53.8125 
Q 49.609375 59.125 46.5 61.953125 
Q 43.40625 64.796875 37.59375 64.796875 
z
M 43.3125 35.015625 
Q 46.4375 34.28125 48.515625 31.390625 
Q 50.59375 28.515625 53.328125 19.921875 
L 59.515625 0 
L 49.125 0 
L 43.40625 18.703125 
Q 41.21875 25.921875 38.328125 28.359375 
Q 35.453125 30.8125 29.5 30.8125 
L 18.609375 30.8125 
L 12.59375 0 
L 2.6875 0 
L 16.890625 72.90625 
L 39.109375 72.90625 
Q 49.21875 72.90625 54.609375 68.328125 
Q 60.015625 63.765625 60.015625 55.171875 
Q 60.015625 47.5625 55.421875 41.984375 
Q 50.828125 36.421875 43.3125 35.015625 
z
" id="DejaVuSans-Oblique-82"/>
       <path d="M 19.1875 8.296875 
L 53.609375 8.296875 
L 53.609375 0 
L 7.328125 0 
L 7.328125 8.296875 
Q 12.9375 14.109375 22.625 23.890625 
Q 32.328125 33.6875 34.8125 36.53125 
Q 39.546875 41.84375 41.421875 45.53125 
Q 43.3125 49.21875 43.3125 52.78125 
Q 43.3125 58.59375 39.234375 62.25 
Q 35.15625 65.921875 28.609375 65.921875 
Q 23.96875 65.921875 18.8125 64.3125 
Q 13.671875 62.703125 7.8125 59.421875 
L 7.8125 69.390625 
Q 13.765625 71.78125 18.9375 73 
Q 24.125 74.21875 28.421875 74.21875 
Q 39.75 74.21875 46.484375 68.546875 
Q 53.21875 62.890625 53.21875 53.421875 
Q 53.21875 48.921875 51.53125 44.890625 
Q 49.859375 40.875 45.40625 35.40625 
Q 44.1875 33.984375 37.640625 27.21875 
Q 31.109375 20.453125 19.1875 8.296875 
z
" id="DejaVuSans-50"/>
      </defs>
      <g transform="translate(275.68125 278.99175)scale(0.1 -0.1)">
       <use transform="translate(0 0.765625)" xlink:href="#DejaVuSans-68"/>
       <use transform="translate(77.001953 0.765625)" xlink:href="#DejaVuSans-105"/>
       <use transform="translate(104.785156 0.765625)" xlink:href="#DejaVuSans-115"/>
       <use transform="translate(156.884766 0.765625)" xlink:href="#DejaVuSans-116"/>
       <use transform="translate(196.09375 0.765625)" xlink:href="#DejaVuSans-46"/>
       <use transform="translate(227.880859 0.765625)" xlink:href="#DejaVuSans-32"/>
       <use transform="translate(259.667969 0.765625)" xlink:href="#DejaVuSans-Oblique-82"/>
       <use transform="translate(336.167161 39.046875)scale(0.7)" xlink:href="#DejaVuSans-50"/>
      </g>
     </g>
    </g>
    <g id="xtick_6">
     <g id="line2d_6">
      <g>
       <use style="stroke:#000000;stroke-width:0.8;" x="350.68125" xlink:href="#m958d7e86ee" y="253.1955"/>
      </g>
     </g>
     <g id="text_6">
      <!-- Bader -->
      <defs>
       <path d="M 19.671875 34.8125 
L 19.671875 8.109375 
L 35.5 8.109375 
Q 43.453125 8.109375 47.28125 11.40625 
Q 51.125 14.703125 51.125 21.484375 
Q 51.125 28.328125 47.28125 31.5625 
Q 43.453125 34.8125 35.5 34.8125 
z
M 19.671875 64.796875 
L 19.671875 42.828125 
L 34.28125 42.828125 
Q 41.5 42.828125 45.03125 45.53125 
Q 48.578125 48.25 48.578125 53.8125 
Q 48.578125 59.328125 45.03125 62.0625 
Q 41.5 64.796875 34.28125 64.796875 
z
M 9.8125 72.90625 
L 35.015625 72.90625 
Q 46.296875 72.90625 52.390625 68.21875 
Q 58.5 63.53125 58.5 54.890625 
Q 58.5 48.1875 55.375 44.234375 
Q 52.25 40.28125 46.1875 39.3125 
Q 53.46875 37.75 57.5 32.78125 
Q 61.53125 27.828125 61.53125 20.40625 
Q 61.53125 10.640625 54.890625 5.3125 
Q 48.25 0 35.984375 0 
L 9.8125 0 
z
" id="DejaVuSans-66"/>
      </defs>
      <g transform="translate(335.880469 267.793937)scale(0.1 -0.1)">
       <use xlink:href="#DejaVuSans-66"/>
       <use x="68.603516" xlink:href="#DejaVuSans-97"/>
       <use x="129.882812" xlink:href="#DejaVuSans-100"/>
       <use x="193.359375" xlink:href="#DejaVuSans-101"/>
       <use x="254.882812" xlink:href="#DejaVuSans-114"/>
      </g>
      <!-- $R^2$ -->
      <g transform="translate(344.48125 278.99175)scale(0.1 -0.1)">
       <use transform="translate(0 0.765625)" xlink:href="#DejaVuSans-Oblique-82"/>
       <use transform="translate(76.499193 39.046875)scale(0.7)" xlink:href="#DejaVuSans-50"/>
      </g>
     </g>
    </g>
   </g>
   <g id="matplotlib.axis_2">
    <g id="ytick_1">
     <g id="line2d_7">
      <defs>
       <path d="M 0 0 
L -3.5 0 
" id="m536d943da1" style="stroke:#000000;stroke-width:0.8;"/>
      </defs>
      <g>
       <use style="stroke:#000000;stroke-width:0.8;" x="43.78125" xlink:href="#m536d943da1" y="242.841215"/>
      </g>
     </g>
     <g id="text_7">
      <!-- 0.0 -->
      <defs>
       <path d="M 31.78125 66.40625 
Q 24.171875 66.40625 20.328125 58.90625 
Q 16.5 51.421875 16.5 36.375 
Q 16.5 21.390625 20.328125 13.890625 
Q 24.171875 6.390625 31.78125 6.390625 
Q 39.453125 6.390625 43.28125 13.890625 
Q 47.125 21.390625 47.125 36.375 
Q 47.125 51.421875 43.28125 58.90625 
Q 39.453125 66.40625 31.78125 66.40625 
z
M 31.78125 74.21875 
Q 44.046875 74.21875 50.515625 64.515625 
Q 56.984375 54.828125 56.984375 36.375 
Q 56.984375 17.96875 50.515625 8.265625 
Q 44.046875 -1.421875 31.78125 -1.421875 
Q 19.53125 -1.421875 13.0625 8.265625 
Q 6.59375 17.96875 6.59375 36.375 
Q 6.59375 54.828125 13.0625 64.515625 
Q 19.53125 74.21875 31.78125 74.21875 
z
" id="DejaVuSans-48"/>
      </defs>
      <g transform="translate(20.878125 246.640434)scale(0.1 -0.1)">
       <use xlink:href="#DejaVuSans-48"/>
       <use x="63.623047" xlink:href="#DejaVuSans-46"/>
       <use x="95.410156" xlink:href="#DejaVuSans-48"/>
      </g>
     </g>
    </g>
    <g id="ytick_2">
     <g id="line2d_8">
      <g>
       <use style="stroke:#000000;stroke-width:0.8;" x="43.78125" xlink:href="#m536d943da1" y="201.424076"/>
      </g>
     </g>
     <g id="text_8">
      <!-- 0.2 -->
      <g transform="translate(20.878125 205.223295)scale(0.1 -0.1)">
       <use xlink:href="#DejaVuSans-48"/>
       <use x="63.623047" xlink:href="#DejaVuSans-46"/>
       <use x="95.410156" xlink:href="#DejaVuSans-50"/>
      </g>
     </g>
    </g>
    <g id="ytick_3">
     <g id="line2d_9">
      <g>
       <use style="stroke:#000000;stroke-width:0.8;" x="43.78125" xlink:href="#m536d943da1" y="160.006937"/>
      </g>
     </g>
     <g id="text_9">
      <!-- 0.4 -->
      <g transform="translate(20.878125 163.806156)scale(0.1 -0.1)">
       <use xlink:href="#DejaVuSans-48"/>
       <use x="63.623047" xlink:href="#DejaVuSans-46"/>
       <use x="95.410156" xlink:href="#DejaVuSans-52"/>
      </g>
     </g>
    </g>
    <g id="ytick_4">
     <g id="line2d_10">
      <g>
       <use style="stroke:#000000;stroke-width:0.8;" x="43.78125" xlink:href="#m536d943da1" y="118.589799"/>
      </g>
     </g>
     <g id="text_10">
      <!-- 0.6 -->
      <g transform="translate(20.878125 122.389017)scale(0.1 -0.1)">
       <use xlink:href="#DejaVuSans-48"/>
       <use x="63.623047" xlink:href="#DejaVuSans-46"/>
       <use x="95.410156" xlink:href="#DejaVuSans-54"/>
      </g>
     </g>
    </g>
    <g id="ytick_5">
     <g id="line2d_11">
      <g>
       <use style="stroke:#000000;stroke-width:0.8;" x="43.78125" xlink:href="#m536d943da1" y="77.17266"/>
      </g>
     </g>
     <g id="text_11">
      <!-- 0.8 -->
      <defs>
       <path d="M 31.78125 34.625 
Q 24.75 34.625 20.71875 30.859375 
Q 16.703125 27.09375 16.703125 20.515625 
Q 16.703125 13.921875 20.71875 10.15625 
Q 24.75 6.390625 31.78125 6.390625 
Q 38.8125 6.390625 42.859375 10.171875 
Q 46.921875 13.96875 46.921875 20.515625 
Q 46.921875 27.09375 42.890625 30.859375 
Q 38.875 34.625 31.78125 34.625 
z
M 21.921875 38.8125 
Q 15.578125 40.375 12.03125 44.71875 
Q 8.5 49.078125 8.5 55.328125 
Q 8.5 64.0625 14.71875 69.140625 
Q 20.953125 74.21875 31.78125 74.21875 
Q 42.671875 74.21875 48.875 69.140625 
Q 55.078125 64.0625 55.078125 55.328125 
Q 55.078125 49.078125 51.53125 44.71875 
Q 48 40.375 41.703125 38.8125 
Q 48.828125 37.15625 52.796875 32.3125 
Q 56.78125 27.484375 56.78125 20.515625 
Q 56.78125 9.90625 50.3125 4.234375 
Q 43.84375 -1.421875 31.78125 -1.421875 
Q 19.734375 -1.421875 13.25 4.234375 
Q 6.78125 9.90625 6.78125 20.515625 
Q 6.78125 27.484375 10.78125 32.3125 
Q 14.796875 37.15625 21.921875 38.8125 
z
M 18.3125 54.390625 
Q 18.3125 48.734375 21.84375 45.5625 
Q 25.390625 42.390625 31.78125 42.390625 
Q 38.140625 42.390625 41.71875 45.5625 
Q 45.3125 48.734375 45.3125 54.390625 
Q 45.3125 60.0625 41.71875 63.234375 
Q 38.140625 66.40625 31.78125 66.40625 
Q 25.390625 66.40625 21.84375 63.234375 
Q 18.3125 60.0625 18.3125 54.390625 
z
" id="DejaVuSans-56"/>
      </defs>
      <g transform="translate(20.878125 80.971878)scale(0.1 -0.1)">
       <use xlink:href="#DejaVuSans-48"/>
       <use x="63.623047" xlink:href="#DejaVuSans-46"/>
       <use x="95.410156" xlink:href="#DejaVuSans-56"/>
      </g>
     </g>
    </g>
    <g id="ytick_6">
     <g id="line2d_12">
      <g>
       <use style="stroke:#000000;stroke-width:0.8;" x="43.78125" xlink:href="#m536d943da1" y="35.755521"/>
      </g>
     </g>
     <g id="text_12">
      <!-- 1.0 -->
      <g transform="translate(20.878125 39.554739)scale(0.1 -0.1)">
       <use xlink:href="#DejaVuSans-49"/>
       <use x="63.623047" xlink:href="#DejaVuSans-46"/>
       <use x="95.410156" xlink:href="#DejaVuSans-48"/>
      </g>
     </g>
    </g>
    <g id="text_13">
     <!-- Figure of Merit -->
     <defs>
      <path d="M 45.40625 27.984375 
Q 45.40625 37.75 41.375 43.109375 
Q 37.359375 48.484375 30.078125 48.484375 
Q 22.859375 48.484375 18.828125 43.109375 
Q 14.796875 37.75 14.796875 27.984375 
Q 14.796875 18.265625 18.828125 12.890625 
Q 22.859375 7.515625 30.078125 7.515625 
Q 37.359375 7.515625 41.375 12.890625 
Q 45.40625 18.265625 45.40625 27.984375 
z
M 54.390625 6.78125 
Q 54.390625 -7.171875 48.1875 -13.984375 
Q 42 -20.796875 29.203125 -20.796875 
Q 24.46875 -20.796875 20.265625 -20.09375 
Q 16.0625 -19.390625 12.109375 -17.921875 
L 12.109375 -9.1875 
Q 16.0625 -11.328125 19.921875 -12.34375 
Q 23.78125 -13.375 27.78125 -13.375 
Q 36.625 -13.375 41.015625 -8.765625 
Q 45.40625 -4.15625 45.40625 5.171875 
L 45.40625 9.625 
Q 42.625 4.78125 38.28125 2.390625 
Q 33.9375 0 27.875 0 
Q 17.828125 0 11.671875 7.65625 
Q 5.515625 15.328125 5.515625 27.984375 
Q 5.515625 40.671875 11.671875 48.328125 
Q 17.828125 56 27.875 56 
Q 33.9375 56 38.28125 53.609375 
Q 42.625 51.21875 45.40625 46.390625 
L 45.40625 54.6875 
L 54.390625 54.6875 
z
" id="DejaVuSans-103"/>
      <path d="M 37.109375 75.984375 
L 37.109375 68.5 
L 28.515625 68.5 
Q 23.6875 68.5 21.796875 66.546875 
Q 19.921875 64.59375 19.921875 59.515625 
L 19.921875 54.6875 
L 34.71875 54.6875 
L 34.71875 47.703125 
L 19.921875 47.703125 
L 19.921875 0 
L 10.890625 0 
L 10.890625 47.703125 
L 2.296875 47.703125 
L 2.296875 54.6875 
L 10.890625 54.6875 
L 10.890625 58.5 
Q 10.890625 67.625 15.140625 71.796875 
Q 19.390625 75.984375 28.609375 75.984375 
z
" id="DejaVuSans-102"/>
     </defs>
     <g transform="translate(14.798438 180.533312)rotate(-90)scale(0.1 -0.1)">
      <use xlink:href="#DejaVuSans-70"/>
      <use x="50.269531" xlink:href="#DejaVuSans-105"/>
      <use x="78.052734" xlink:href="#DejaVuSans-103"/>
      <use x="141.529297" xlink:href="#DejaVuSans-117"/>
      <use x="204.908203" xlink:href="#DejaVuSans-114"/>
      <use x="243.771484" xlink:href="#DejaVuSans-101"/>
      <use x="305.294922" xlink:href="#DejaVuSans-32"/>
      <use x="337.082031" xlink:href="#DejaVuSans-111"/>
      <use x="398.263672" xlink:href="#DejaVuSans-102"/>
      <use x="433.46875" xlink:href="#DejaVuSans-32"/>
      <use x="465.255859" xlink:href="#DejaVuSans-77"/>
      <use x="551.535156" xlink:href="#DejaVuSans-101"/>
      <use x="613.058594" xlink:href="#DejaVuSans-114"/>
      <use x="654.171875" xlink:href="#DejaVuSans-105"/>
      <use x="681.955078" xlink:href="#DejaVuSans-116"/>
     </g>
    </g>
   </g>
   <g id="LineCollection_1">
    <path clip-path="url(#pce23442af0)" d="M 47.26875 63.525712 
L 47.26875 61.332261 
" style="fill:none;stroke:#000000;stroke-width:1.5;"/>
   </g>
   <g id="LineCollection_2">
    <path clip-path="url(#pce23442af0)" d="M 103.06875 83.275889 
L 103.06875 78.607349 
" style="fill:none;stroke:#000000;stroke-width:1.5;"/>
   </g>
   <g id="LineCollection_3">
    <path clip-path="url(#pce23442af0)" d="M 158.86875 63.292327 
L 158.86875 61.232652 
" style="fill:none;stroke:#000000;stroke-width:1.5;"/>
   </g>
   <g id="LineCollection_4">
    <path clip-path="url(#pce23442af0)" d="M 214.66875 60.296418 
L 214.66875 58.098825 
" style="fill:none;stroke:#000000;stroke-width:1.5;"/>
   </g>
   <g id="LineCollection_5">
    <path clip-path="url(#pce23442af0)" d="M 270.46875 64.77651 
L 270.46875 63.750193 
" style="fill:none;stroke:#000000;stroke-width:1.5;"/>
   </g>
   <g id="LineCollection_6">
    <path clip-path="url(#pce23442af0)" d="M 326.26875 255.137964 
L 326.26875 145.901088 
" style="fill:none;stroke:#000000;stroke-width:1.5;"/>
   </g>
   <g id="LineCollection_7">
    <path clip-path="url(#pce23442af0)" d="M 54.24375 60.255001 
L 54.24375 59.686758 
" style="fill:none;stroke:#000000;stroke-width:1.5;"/>
   </g>
   <g id="LineCollection_8">
    <path clip-path="url(#pce23442af0)" d="M 110.04375 43.254715 
L 110.04375 42.793742 
" style="fill:none;stroke:#000000;stroke-width:1.5;"/>
   </g>
   <g id="LineCollection_9">
    <path clip-path="url(#pce23442af0)" d="M 165.84375 74.167639 
L 165.84375 73.343852 
" style="fill:none;stroke:#000000;stroke-width:1.5;"/>
   </g>
   <g id="LineCollection_10">
    <path clip-path="url(#pce23442af0)" d="M 221.64375 61.968428 
L 221.64375 61.314037 
" style="fill:none;stroke:#000000;stroke-width:1.5;"/>
   </g>
   <g id="LineCollection_11">
    <path clip-path="url(#pce23442af0)" d="M 277.44375 48.168237 
L 277.44375 48.000498 
" style="fill:none;stroke:#000000;stroke-width:1.5;"/>
   </g>
   <g id="LineCollection_12">
    <path clip-path="url(#pce23442af0)" d="M 333.24375 83.350233 
L 333.24375 72.682835 
" style="fill:none;stroke:#000000;stroke-width:1.5;"/>
   </g>
   <g id="LineCollection_13">
    <path clip-path="url(#pce23442af0)" d="M 61.21875 62.11608 
L 61.21875 59.918072 
" style="fill:none;stroke:#000000;stroke-width:1.5;"/>
   </g>
   <g id="LineCollection_14">
    <path clip-path="url(#pce23442af0)" d="M 117.01875 48.801712 
L 117.01875 46.565601 
" style="fill:none;stroke:#000000;stroke-width:1.5;"/>
   </g>
   <g id="LineCollection_15">
    <path clip-path="url(#pce23442af0)" d="M 172.81875 97.292899 
L 172.81875 92.174154 
" style="fill:none;stroke:#000000;stroke-width:1.5;"/>
   </g>
   <g id="LineCollection_16">
    <path clip-path="url(#pce23442af0)" d="M 228.61875 53.891672 
L 228.61875 52.534018 
" style="fill:none;stroke:#000000;stroke-width:1.5;"/>
   </g>
   <g id="LineCollection_17">
    <path clip-path="url(#pce23442af0)" d="M 284.41875 68.194459 
L 284.41875 67.772005 
" style="fill:none;stroke:#000000;stroke-width:1.5;"/>
   </g>
   <g id="LineCollection_18">
    <path clip-path="url(#pce23442af0)" d="M 340.21875 71.480081 
L 340.21875 64.145934 
" style="fill:none;stroke:#000000;stroke-width:1.5;"/>
   </g>
   <g id="LineCollection_19">
    <path clip-path="url(#pce23442af0)" d="M 68.19375 76.809017 
L 68.19375 75.308888 
" style="fill:none;stroke:#000000;stroke-width:1.5;"/>
   </g>
   <g id="LineCollection_20">
    <path clip-path="url(#pce23442af0)" d="M 123.99375 116.129413 
L 123.99375 111.358573 
" style="fill:none;stroke:#000000;stroke-width:1.5;"/>
   </g>
   <g id="LineCollection_21">
    <path clip-path="url(#pce23442af0)" d="M 179.79375 76.701747 
L 179.79375 74.827207 
" style="fill:none;stroke:#000000;stroke-width:1.5;"/>
   </g>
   <g id="LineCollection_22">
    <path clip-path="url(#pce23442af0)" d="M 235.59375 73.945436 
L 235.59375 72.861964 
" style="fill:none;stroke:#000000;stroke-width:1.5;"/>
   </g>
   <g id="LineCollection_23">
    <path clip-path="url(#pce23442af0)" d="M 291.39375 52.212828 
L 291.39375 52.182179 
" style="fill:none;stroke:#000000;stroke-width:1.5;"/>
   </g>
   <g id="LineCollection_24">
    <path clip-path="url(#pce23442af0)" d="M 347.19375 105.963162 
L 347.19375 84.524823 
" style="fill:none;stroke:#000000;stroke-width:1.5;"/>
   </g>
   <g id="LineCollection_25">
    <path clip-path="url(#pce23442af0)" d="M 75.16875 68.796457 
L 75.16875 68.023199 
" style="fill:none;stroke:#000000;stroke-width:1.5;"/>
   </g>
   <g id="LineCollection_26">
    <path clip-path="url(#pce23442af0)" d="M 130.96875 71.70187 
L 130.96875 70.052639 
" style="fill:none;stroke:#000000;stroke-width:1.5;"/>
   </g>
   <g id="LineCollection_27">
    <path clip-path="url(#pce23442af0)" d="M 186.76875 71.165725 
L 186.76875 70.298864 
" style="fill:none;stroke:#000000;stroke-width:1.5;"/>
   </g>
   <g id="LineCollection_28">
    <path clip-path="url(#pce23442af0)" d="M 242.56875 65.169352 
L 242.56875 64.035764 
" style="fill:none;stroke:#000000;stroke-width:1.5;"/>
   </g>
   <g id="LineCollection_29">
    <path clip-path="url(#pce23442af0)" d="M 298.36875 56.75546 
L 298.36875 56.042671 
" style="fill:none;stroke:#000000;stroke-width:1.5;"/>
   </g>
   <g id="LineCollection_30">
    <path clip-path="url(#pce23442af0)" d="M 354.16875 98.050625 
L 354.16875 81.430342 
" style="fill:none;stroke:#000000;stroke-width:1.5;"/>
   </g>
   <g id="LineCollection_31">
    <path clip-path="url(#pce23442af0)" d="M 82.14375 74.231422 
L 82.14375 72.729636 
" style="fill:none;stroke:#000000;stroke-width:1.5;"/>
   </g>
   <g id="LineCollection_32">
    <path clip-path="url(#pce23442af0)" d="M 137.94375 74.423804 
L 137.94375 72.300762 
" style="fill:none;stroke:#000000;stroke-width:1.5;"/>
   </g>
   <g id="LineCollection_33">
    <path clip-path="url(#pce23442af0)" d="M 193.74375 100.04279 
L 193.74375 98.287531 
" style="fill:none;stroke:#000000;stroke-width:1.5;"/>
   </g>
   <g id="LineCollection_34">
    <path clip-path="url(#pce23442af0)" d="M 249.54375 60.37656 
L 249.54375 58.63994 
" style="fill:none;stroke:#000000;stroke-width:1.5;"/>
   </g>
   <g id="LineCollection_35">
    <path clip-path="url(#pce23442af0)" d="M 305.34375 54.771579 
L 305.34375 54.55331 
" style="fill:none;stroke:#000000;stroke-width:1.5;"/>
   </g>
   <g id="LineCollection_36">
    <path clip-path="url(#pce23442af0)" d="M 361.14375 100.617452 
L 361.14375 78.832866 
" style="fill:none;stroke:#000000;stroke-width:1.5;"/>
   </g>
   <g id="LineCollection_37">
    <path clip-path="url(#pce23442af0)" d="M 89.11875 60.355852 
L 89.11875 58.266771 
" style="fill:none;stroke:#000000;stroke-width:1.5;"/>
   </g>
   <g id="LineCollection_38">
    <path clip-path="url(#pce23442af0)" d="M 144.91875 72.306146 
L 144.91875 72.306146 
" style="fill:none;stroke:#000000;stroke-width:1.5;"/>
   </g>
   <g id="LineCollection_39">
    <path clip-path="url(#pce23442af0)" d="M 200.71875 82.745336 
L 200.71875 78.806566 
" style="fill:none;stroke:#000000;stroke-width:1.5;"/>
   </g>
   <g id="LineCollection_40">
    <path clip-path="url(#pce23442af0)" d="M 256.51875 50.952297 
L 256.51875 49.42649 
" style="fill:none;stroke:#000000;stroke-width:1.5;"/>
   </g>
   <g id="LineCollection_41">
    <path clip-path="url(#pce23442af0)" d="M 312.31875 60.556518 
L 312.31875 58.516724 
" style="fill:none;stroke:#000000;stroke-width:1.5;"/>
   </g>
   <g id="LineCollection_42">
    <path clip-path="url(#pce23442af0)" d="M 368.11875 245.447803 
L 368.11875 134.128888 
" style="fill:none;stroke:#000000;stroke-width:1.5;"/>
   </g>
   <g id="LineCollection_43">
    <path clip-path="url(#pce23442af0)" d="M 96.09375 67.988202 
L 96.09375 66.833078 
" style="fill:none;stroke:#000000;stroke-width:1.5;"/>
   </g>
   <g id="LineCollection_44">
    <path clip-path="url(#pce23442af0)" d="M 151.89375 116.343747 
L 151.89375 111.972582 
" style="fill:none;stroke:#000000;stroke-width:1.5;"/>
   </g>
   <g id="LineCollection_45">
    <path clip-path="url(#pce23442af0)" d="M 207.69375 58.234673 
L 207.69375 57.468456 
" style="fill:none;stroke:#000000;stroke-width:1.5;"/>
   </g>
   <g id="LineCollection_46">
    <path clip-path="url(#pce23442af0)" d="M 263.49375 75.984195 
L 263.49375 72.272805 
" style="fill:none;stroke:#000000;stroke-width:1.5;"/>
   </g>
   <g id="LineCollection_47">
    <path clip-path="url(#pce23442af0)" d="M 319.29375 97.625271 
L 319.29375 95.139829 
" style="fill:none;stroke:#000000;stroke-width:1.5;"/>
   </g>
   <g id="LineCollection_48">
    <path clip-path="url(#pce23442af0)" d="M 375.09375 188.268543 
L 375.09375 117.212472 
" style="fill:none;stroke:#000000;stroke-width:1.5;"/>
   </g>
   <g id="line2d_13">
    <defs>
     <path d="M 1.5 0 
L -1.5 -0 
" id="mba52bc5eb6" style="stroke:#000000;"/>
    </defs>
    <g clip-path="url(#pce23442af0)">
     <use style="stroke:#000000;" x="47.26875" xlink:href="#mba52bc5eb6" y="63.525712"/>
    </g>
   </g>
   <g id="line2d_14">
    <g clip-path="url(#pce23442af0)">
     <use style="stroke:#000000;" x="47.26875" xlink:href="#mba52bc5eb6" y="61.332261"/>
    </g>
   </g>
   <g id="line2d_15">
    <g clip-path="url(#pce23442af0)">
     <use style="stroke:#000000;" x="103.06875" xlink:href="#mba52bc5eb6" y="83.275889"/>
    </g>
   </g>
   <g id="line2d_16">
    <g clip-path="url(#pce23442af0)">
     <use style="stroke:#000000;" x="103.06875" xlink:href="#mba52bc5eb6" y="78.607349"/>
    </g>
   </g>
   <g id="line2d_17">
    <g clip-path="url(#pce23442af0)">
     <use style="stroke:#000000;" x="158.86875" xlink:href="#mba52bc5eb6" y="63.292327"/>
    </g>
   </g>
   <g id="line2d_18">
    <g clip-path="url(#pce23442af0)">
     <use style="stroke:#000000;" x="158.86875" xlink:href="#mba52bc5eb6" y="61.232652"/>
    </g>
   </g>
   <g id="line2d_19">
    <g clip-path="url(#pce23442af0)">
     <use style="stroke:#000000;" x="214.66875" xlink:href="#mba52bc5eb6" y="60.296418"/>
    </g>
   </g>
   <g id="line2d_20">
    <g clip-path="url(#pce23442af0)">
     <use style="stroke:#000000;" x="214.66875" xlink:href="#mba52bc5eb6" y="58.098825"/>
    </g>
   </g>
   <g id="line2d_21">
    <g clip-path="url(#pce23442af0)">
     <use style="stroke:#000000;" x="270.46875" xlink:href="#mba52bc5eb6" y="64.77651"/>
    </g>
   </g>
   <g id="line2d_22">
    <g clip-path="url(#pce23442af0)">
     <use style="stroke:#000000;" x="270.46875" xlink:href="#mba52bc5eb6" y="63.750193"/>
    </g>
   </g>
   <g id="line2d_23">
    <g clip-path="url(#pce23442af0)">
     <use style="stroke:#000000;" x="326.26875" xlink:href="#mba52bc5eb6" y="255.137964"/>
    </g>
   </g>
   <g id="line2d_24">
    <g clip-path="url(#pce23442af0)">
     <use style="stroke:#000000;" x="326.26875" xlink:href="#mba52bc5eb6" y="145.901088"/>
    </g>
   </g>
   <g id="line2d_25">
    <g clip-path="url(#pce23442af0)">
     <use style="stroke:#000000;" x="54.24375" xlink:href="#mba52bc5eb6" y="60.255001"/>
    </g>
   </g>
   <g id="line2d_26">
    <g clip-path="url(#pce23442af0)">
     <use style="stroke:#000000;" x="54.24375" xlink:href="#mba52bc5eb6" y="59.686758"/>
    </g>
   </g>
   <g id="line2d_27">
    <g clip-path="url(#pce23442af0)">
     <use style="stroke:#000000;" x="110.04375" xlink:href="#mba52bc5eb6" y="43.254715"/>
    </g>
   </g>
   <g id="line2d_28">
    <g clip-path="url(#pce23442af0)">
     <use style="stroke:#000000;" x="110.04375" xlink:href="#mba52bc5eb6" y="42.793742"/>
    </g>
   </g>
   <g id="line2d_29">
    <g clip-path="url(#pce23442af0)">
     <use style="stroke:#000000;" x="165.84375" xlink:href="#mba52bc5eb6" y="74.167639"/>
    </g>
   </g>
   <g id="line2d_30">
    <g clip-path="url(#pce23442af0)">
     <use style="stroke:#000000;" x="165.84375" xlink:href="#mba52bc5eb6" y="73.343852"/>
    </g>
   </g>
   <g id="line2d_31">
    <g clip-path="url(#pce23442af0)">
     <use style="stroke:#000000;" x="221.64375" xlink:href="#mba52bc5eb6" y="61.968428"/>
    </g>
   </g>
   <g id="line2d_32">
    <g clip-path="url(#pce23442af0)">
     <use style="stroke:#000000;" x="221.64375" xlink:href="#mba52bc5eb6" y="61.314037"/>
    </g>
   </g>
   <g id="line2d_33">
    <g clip-path="url(#pce23442af0)">
     <use style="stroke:#000000;" x="277.44375" xlink:href="#mba52bc5eb6" y="48.168237"/>
    </g>
   </g>
   <g id="line2d_34">
    <g clip-path="url(#pce23442af0)">
     <use style="stroke:#000000;" x="277.44375" xlink:href="#mba52bc5eb6" y="48.000498"/>
    </g>
   </g>
   <g id="line2d_35">
    <g clip-path="url(#pce23442af0)">
     <use style="stroke:#000000;" x="333.24375" xlink:href="#mba52bc5eb6" y="83.350233"/>
    </g>
   </g>
   <g id="line2d_36">
    <g clip-path="url(#pce23442af0)">
     <use style="stroke:#000000;" x="333.24375" xlink:href="#mba52bc5eb6" y="72.682835"/>
    </g>
   </g>
   <g id="line2d_37">
    <g clip-path="url(#pce23442af0)">
     <use style="stroke:#000000;" x="61.21875" xlink:href="#mba52bc5eb6" y="62.11608"/>
    </g>
   </g>
   <g id="line2d_38">
    <g clip-path="url(#pce23442af0)">
     <use style="stroke:#000000;" x="61.21875" xlink:href="#mba52bc5eb6" y="59.918072"/>
    </g>
   </g>
   <g id="line2d_39">
    <g clip-path="url(#pce23442af0)">
     <use style="stroke:#000000;" x="117.01875" xlink:href="#mba52bc5eb6" y="48.801712"/>
    </g>
   </g>
   <g id="line2d_40">
    <g clip-path="url(#pce23442af0)">
     <use style="stroke:#000000;" x="117.01875" xlink:href="#mba52bc5eb6" y="46.565601"/>
    </g>
   </g>
   <g id="line2d_41">
    <g clip-path="url(#pce23442af0)">
     <use style="stroke:#000000;" x="172.81875" xlink:href="#mba52bc5eb6" y="97.292899"/>
    </g>
   </g>
   <g id="line2d_42">
    <g clip-path="url(#pce23442af0)">
     <use style="stroke:#000000;" x="172.81875" xlink:href="#mba52bc5eb6" y="92.174154"/>
    </g>
   </g>
   <g id="line2d_43">
    <g clip-path="url(#pce23442af0)">
     <use style="stroke:#000000;" x="228.61875" xlink:href="#mba52bc5eb6" y="53.891672"/>
    </g>
   </g>
   <g id="line2d_44">
    <g clip-path="url(#pce23442af0)">
     <use style="stroke:#000000;" x="228.61875" xlink:href="#mba52bc5eb6" y="52.534018"/>
    </g>
   </g>
   <g id="line2d_45">
    <g clip-path="url(#pce23442af0)">
     <use style="stroke:#000000;" x="284.41875" xlink:href="#mba52bc5eb6" y="68.194459"/>
    </g>
   </g>
   <g id="line2d_46">
    <g clip-path="url(#pce23442af0)">
     <use style="stroke:#000000;" x="284.41875" xlink:href="#mba52bc5eb6" y="67.772005"/>
    </g>
   </g>
   <g id="line2d_47">
    <g clip-path="url(#pce23442af0)">
     <use style="stroke:#000000;" x="340.21875" xlink:href="#mba52bc5eb6" y="71.480081"/>
    </g>
   </g>
   <g id="line2d_48">
    <g clip-path="url(#pce23442af0)">
     <use style="stroke:#000000;" x="340.21875" xlink:href="#mba52bc5eb6" y="64.145934"/>
    </g>
   </g>
   <g id="line2d_49">
    <g clip-path="url(#pce23442af0)">
     <use style="stroke:#000000;" x="68.19375" xlink:href="#mba52bc5eb6" y="76.809017"/>
    </g>
   </g>
   <g id="line2d_50">
    <g clip-path="url(#pce23442af0)">
     <use style="stroke:#000000;" x="68.19375" xlink:href="#mba52bc5eb6" y="75.308888"/>
    </g>
   </g>
   <g id="line2d_51">
    <g clip-path="url(#pce23442af0)">
     <use style="stroke:#000000;" x="123.99375" xlink:href="#mba52bc5eb6" y="116.129413"/>
    </g>
   </g>
   <g id="line2d_52">
    <g clip-path="url(#pce23442af0)">
     <use style="stroke:#000000;" x="123.99375" xlink:href="#mba52bc5eb6" y="111.358573"/>
    </g>
   </g>
   <g id="line2d_53">
    <g clip-path="url(#pce23442af0)">
     <use style="stroke:#000000;" x="179.79375" xlink:href="#mba52bc5eb6" y="76.701747"/>
    </g>
   </g>
   <g id="line2d_54">
    <g clip-path="url(#pce23442af0)">
     <use style="stroke:#000000;" x="179.79375" xlink:href="#mba52bc5eb6" y="74.827207"/>
    </g>
   </g>
   <g id="line2d_55">
    <g clip-path="url(#pce23442af0)">
     <use style="stroke:#000000;" x="235.59375" xlink:href="#mba52bc5eb6" y="73.945436"/>
    </g>
   </g>
   <g id="line2d_56">
    <g clip-path="url(#pce23442af0)">
     <use style="stroke:#000000;" x="235.59375" xlink:href="#mba52bc5eb6" y="72.861964"/>
    </g>
   </g>
   <g id="line2d_57">
    <g clip-path="url(#pce23442af0)">
     <use style="stroke:#000000;" x="291.39375" xlink:href="#mba52bc5eb6" y="52.212828"/>
    </g>
   </g>
   <g id="line2d_58">
    <g clip-path="url(#pce23442af0)">
     <use style="stroke:#000000;" x="291.39375" xlink:href="#mba52bc5eb6" y="52.182179"/>
    </g>
   </g>
   <g id="line2d_59">
    <g clip-path="url(#pce23442af0)">
     <use style="stroke:#000000;" x="347.19375" xlink:href="#mba52bc5eb6" y="105.963162"/>
    </g>
   </g>
   <g id="line2d_60">
    <g clip-path="url(#pce23442af0)">
     <use style="stroke:#000000;" x="347.19375" xlink:href="#mba52bc5eb6" y="84.524823"/>
    </g>
   </g>
   <g id="line2d_61">
    <g clip-path="url(#pce23442af0)">
     <use style="stroke:#000000;" x="75.16875" xlink:href="#mba52bc5eb6" y="68.796457"/>
    </g>
   </g>
   <g id="line2d_62">
    <g clip-path="url(#pce23442af0)">
     <use style="stroke:#000000;" x="75.16875" xlink:href="#mba52bc5eb6" y="68.023199"/>
    </g>
   </g>
   <g id="line2d_63">
    <g clip-path="url(#pce23442af0)">
     <use style="stroke:#000000;" x="130.96875" xlink:href="#mba52bc5eb6" y="71.70187"/>
    </g>
   </g>
   <g id="line2d_64">
    <g clip-path="url(#pce23442af0)">
     <use style="stroke:#000000;" x="130.96875" xlink:href="#mba52bc5eb6" y="70.052639"/>
    </g>
   </g>
   <g id="line2d_65">
    <g clip-path="url(#pce23442af0)">
     <use style="stroke:#000000;" x="186.76875" xlink:href="#mba52bc5eb6" y="71.165725"/>
    </g>
   </g>
   <g id="line2d_66">
    <g clip-path="url(#pce23442af0)">
     <use style="stroke:#000000;" x="186.76875" xlink:href="#mba52bc5eb6" y="70.298864"/>
    </g>
   </g>
   <g id="line2d_67">
    <g clip-path="url(#pce23442af0)">
     <use style="stroke:#000000;" x="242.56875" xlink:href="#mba52bc5eb6" y="65.169352"/>
    </g>
   </g>
   <g id="line2d_68">
    <g clip-path="url(#pce23442af0)">
     <use style="stroke:#000000;" x="242.56875" xlink:href="#mba52bc5eb6" y="64.035764"/>
    </g>
   </g>
   <g id="line2d_69">
    <g clip-path="url(#pce23442af0)">
     <use style="stroke:#000000;" x="298.36875" xlink:href="#mba52bc5eb6" y="56.75546"/>
    </g>
   </g>
   <g id="line2d_70">
    <g clip-path="url(#pce23442af0)">
     <use style="stroke:#000000;" x="298.36875" xlink:href="#mba52bc5eb6" y="56.042671"/>
    </g>
   </g>
   <g id="line2d_71">
    <g clip-path="url(#pce23442af0)">
     <use style="stroke:#000000;" x="354.16875" xlink:href="#mba52bc5eb6" y="98.050625"/>
    </g>
   </g>
   <g id="line2d_72">
    <g clip-path="url(#pce23442af0)">
     <use style="stroke:#000000;" x="354.16875" xlink:href="#mba52bc5eb6" y="81.430342"/>
    </g>
   </g>
   <g id="line2d_73">
    <g clip-path="url(#pce23442af0)">
     <use style="stroke:#000000;" x="82.14375" xlink:href="#mba52bc5eb6" y="74.231422"/>
    </g>
   </g>
   <g id="line2d_74">
    <g clip-path="url(#pce23442af0)">
     <use style="stroke:#000000;" x="82.14375" xlink:href="#mba52bc5eb6" y="72.729636"/>
    </g>
   </g>
   <g id="line2d_75">
    <g clip-path="url(#pce23442af0)">
     <use style="stroke:#000000;" x="137.94375" xlink:href="#mba52bc5eb6" y="74.423804"/>
    </g>
   </g>
   <g id="line2d_76">
    <g clip-path="url(#pce23442af0)">
     <use style="stroke:#000000;" x="137.94375" xlink:href="#mba52bc5eb6" y="72.300762"/>
    </g>
   </g>
   <g id="line2d_77">
    <g clip-path="url(#pce23442af0)">
     <use style="stroke:#000000;" x="193.74375" xlink:href="#mba52bc5eb6" y="100.04279"/>
    </g>
   </g>
   <g id="line2d_78">
    <g clip-path="url(#pce23442af0)">
     <use style="stroke:#000000;" x="193.74375" xlink:href="#mba52bc5eb6" y="98.287531"/>
    </g>
   </g>
   <g id="line2d_79">
    <g clip-path="url(#pce23442af0)">
     <use style="stroke:#000000;" x="249.54375" xlink:href="#mba52bc5eb6" y="60.37656"/>
    </g>
   </g>
   <g id="line2d_80">
    <g clip-path="url(#pce23442af0)">
     <use style="stroke:#000000;" x="249.54375" xlink:href="#mba52bc5eb6" y="58.63994"/>
    </g>
   </g>
   <g id="line2d_81">
    <g clip-path="url(#pce23442af0)">
     <use style="stroke:#000000;" x="305.34375" xlink:href="#mba52bc5eb6" y="54.771579"/>
    </g>
   </g>
   <g id="line2d_82">
    <g clip-path="url(#pce23442af0)">
     <use style="stroke:#000000;" x="305.34375" xlink:href="#mba52bc5eb6" y="54.55331"/>
    </g>
   </g>
   <g id="line2d_83">
    <g clip-path="url(#pce23442af0)">
     <use style="stroke:#000000;" x="361.14375" xlink:href="#mba52bc5eb6" y="100.617452"/>
    </g>
   </g>
   <g id="line2d_84">
    <g clip-path="url(#pce23442af0)">
     <use style="stroke:#000000;" x="361.14375" xlink:href="#mba52bc5eb6" y="78.832866"/>
    </g>
   </g>
   <g id="line2d_85">
    <g clip-path="url(#pce23442af0)">
     <use style="stroke:#000000;" x="89.11875" xlink:href="#mba52bc5eb6" y="60.355852"/>
    </g>
   </g>
   <g id="line2d_86">
    <g clip-path="url(#pce23442af0)">
     <use style="stroke:#000000;" x="89.11875" xlink:href="#mba52bc5eb6" y="58.266771"/>
    </g>
   </g>
   <g id="line2d_87">
    <g clip-path="url(#pce23442af0)">
     <use style="stroke:#000000;" x="144.91875" xlink:href="#mba52bc5eb6" y="72.306146"/>
    </g>
   </g>
   <g id="line2d_88">
    <g clip-path="url(#pce23442af0)">
     <use style="stroke:#000000;" x="144.91875" xlink:href="#mba52bc5eb6" y="72.306146"/>
    </g>
   </g>
   <g id="line2d_89">
    <g clip-path="url(#pce23442af0)">
     <use style="stroke:#000000;" x="200.71875" xlink:href="#mba52bc5eb6" y="82.745336"/>
    </g>
   </g>
   <g id="line2d_90">
    <g clip-path="url(#pce23442af0)">
     <use style="stroke:#000000;" x="200.71875" xlink:href="#mba52bc5eb6" y="78.806566"/>
    </g>
   </g>
   <g id="line2d_91">
    <g clip-path="url(#pce23442af0)">
     <use style="stroke:#000000;" x="256.51875" xlink:href="#mba52bc5eb6" y="50.952297"/>
    </g>
   </g>
   <g id="line2d_92">
    <g clip-path="url(#pce23442af0)">
     <use style="stroke:#000000;" x="256.51875" xlink:href="#mba52bc5eb6" y="49.42649"/>
    </g>
   </g>
   <g id="line2d_93">
    <g clip-path="url(#pce23442af0)">
     <use style="stroke:#000000;" x="312.31875" xlink:href="#mba52bc5eb6" y="60.556518"/>
    </g>
   </g>
   <g id="line2d_94">
    <g clip-path="url(#pce23442af0)">
     <use style="stroke:#000000;" x="312.31875" xlink:href="#mba52bc5eb6" y="58.516724"/>
    </g>
   </g>
   <g id="line2d_95">
    <g clip-path="url(#pce23442af0)">
     <use style="stroke:#000000;" x="368.11875" xlink:href="#mba52bc5eb6" y="245.447803"/>
    </g>
   </g>
   <g id="line2d_96">
    <g clip-path="url(#pce23442af0)">
     <use style="stroke:#000000;" x="368.11875" xlink:href="#mba52bc5eb6" y="134.128888"/>
    </g>
   </g>
   <g id="line2d_97">
    <g clip-path="url(#pce23442af0)">
     <use style="stroke:#000000;" x="96.09375" xlink:href="#mba52bc5eb6" y="67.988202"/>
    </g>
   </g>
   <g id="line2d_98">
    <g clip-path="url(#pce23442af0)">
     <use style="stroke:#000000;" x="96.09375" xlink:href="#mba52bc5eb6" y="66.833078"/>
    </g>
   </g>
   <g id="line2d_99">
    <g clip-path="url(#pce23442af0)">
     <use style="stroke:#000000;" x="151.89375" xlink:href="#mba52bc5eb6" y="116.343747"/>
    </g>
   </g>
   <g id="line2d_100">
    <g clip-path="url(#pce23442af0)">
     <use style="stroke:#000000;" x="151.89375" xlink:href="#mba52bc5eb6" y="111.972582"/>
    </g>
   </g>
   <g id="line2d_101">
    <g clip-path="url(#pce23442af0)">
     <use style="stroke:#000000;" x="207.69375" xlink:href="#mba52bc5eb6" y="58.234673"/>
    </g>
   </g>
   <g id="line2d_102">
    <g clip-path="url(#pce23442af0)">
     <use style="stroke:#000000;" x="207.69375" xlink:href="#mba52bc5eb6" y="57.468456"/>
    </g>
   </g>
   <g id="line2d_103">
    <g clip-path="url(#pce23442af0)">
     <use style="stroke:#000000;" x="263.49375" xlink:href="#mba52bc5eb6" y="75.984195"/>
    </g>
   </g>
   <g id="line2d_104">
    <g clip-path="url(#pce23442af0)">
     <use style="stroke:#000000;" x="263.49375" xlink:href="#mba52bc5eb6" y="72.272805"/>
    </g>
   </g>
   <g id="line2d_105">
    <g clip-path="url(#pce23442af0)">
     <use style="stroke:#000000;" x="319.29375" xlink:href="#mba52bc5eb6" y="97.625271"/>
    </g>
   </g>
   <g id="line2d_106">
    <g clip-path="url(#pce23442af0)">
     <use style="stroke:#000000;" x="319.29375" xlink:href="#mba52bc5eb6" y="95.139829"/>
    </g>
   </g>
   <g id="line2d_107">
    <g clip-path="url(#pce23442af0)">
     <use style="stroke:#000000;" x="375.09375" xlink:href="#mba52bc5eb6" y="188.268543"/>
    </g>
   </g>
   <g id="line2d_108">
    <g clip-path="url(#pce23442af0)">
     <use style="stroke:#000000;" x="375.09375" xlink:href="#mba52bc5eb6" y="117.212472"/>
    </g>
   </g>
   <g id="line2d_109">
    <path clip-path="url(#pce23442af0)" d="M 43.78125 253.1955 
L 43.78125 35.7555 
" style="fill:none;stroke:#000000;stroke-linecap:square;"/>
   </g>
   <g id="line2d_110">
    <path clip-path="url(#pce23442af0)" d="M 99.58125 253.1955 
L 99.58125 35.7555 
" style="fill:none;stroke:#000000;stroke-linecap:square;"/>
   </g>
   <g id="line2d_111">
    <path clip-path="url(#pce23442af0)" d="M 155.38125 253.1955 
L 155.38125 35.7555 
" style="fill:none;stroke:#000000;stroke-linecap:square;"/>
   </g>
   <g id="line2d_112">
    <path clip-path="url(#pce23442af0)" d="M 211.18125 253.1955 
L 211.18125 35.7555 
" style="fill:none;stroke:#000000;stroke-linecap:square;"/>
   </g>
   <g id="line2d_113">
    <path clip-path="url(#pce23442af0)" d="M 266.98125 253.1955 
L 266.98125 35.7555 
" style="fill:none;stroke:#000000;stroke-linecap:square;"/>
   </g>
   <g id="line2d_114">
    <path clip-path="url(#pce23442af0)" d="M 322.78125 253.1955 
L 322.78125 35.7555 
" style="fill:none;stroke:#000000;stroke-linecap:square;"/>
   </g>
   <g id="line2d_115">
    <path clip-path="url(#pce23442af0)" d="M 43.78125 201.424076 
L 378.58125 201.424076 
" style="fill:none;stroke:#808080;stroke-dasharray:5.55,2.4;stroke-dashoffset:0;stroke-opacity:0.1;stroke-width:1.5;"/>
   </g>
   <g id="line2d_116">
    <path clip-path="url(#pce23442af0)" d="M 43.78125 160.006937 
L 378.58125 160.006937 
" style="fill:none;stroke:#808080;stroke-dasharray:5.55,2.4;stroke-dashoffset:0;stroke-opacity:0.1;stroke-width:1.5;"/>
   </g>
   <g id="line2d_117">
    <path clip-path="url(#pce23442af0)" d="M 43.78125 118.589799 
L 378.58125 118.589799 
" style="fill:none;stroke:#808080;stroke-dasharray:5.55,2.4;stroke-dashoffset:0;stroke-opacity:0.1;stroke-width:1.5;"/>
   </g>
   <g id="line2d_118">
    <path clip-path="url(#pce23442af0)" d="M 43.78125 77.17266 
L 378.58125 77.17266 
" style="fill:none;stroke:#808080;stroke-dasharray:5.55,2.4;stroke-dashoffset:0;stroke-opacity:0.1;stroke-width:1.5;"/>
   </g>
   <g id="patch_59">
    <path d="M 43.78125 253.1955 
L 43.78125 35.7555 
" style="fill:none;stroke:#000000;stroke-linecap:square;stroke-linejoin:miter;stroke-width:0.8;"/>
   </g>
   <g id="patch_60">
    <path d="M 378.58125 253.1955 
L 378.58125 35.7555 
" style="fill:none;stroke:#000000;stroke-linecap:square;stroke-linejoin:miter;stroke-width:0.8;"/>
   </g>
   <g id="patch_61">
    <path d="M 43.78125 253.1955 
L 378.58125 253.1955 
" style="fill:none;stroke:#000000;stroke-linecap:square;stroke-linejoin:miter;stroke-width:0.8;"/>
   </g>
   <g id="patch_62">
    <path d="M 43.78125 35.7555 
L 378.58125 35.7555 
" style="fill:none;stroke:#000000;stroke-linecap:square;stroke-linejoin:miter;stroke-width:0.8;"/>
   </g>
   <g id="text_14">
    <!-- RF: Accumulated Figures of Merit -->
    <defs>
     <path d="M 44.390625 34.1875 
Q 47.5625 33.109375 50.5625 29.59375 
Q 53.5625 26.078125 56.59375 19.921875 
L 66.609375 0 
L 56 0 
L 46.6875 18.703125 
Q 43.0625 26.03125 39.671875 28.421875 
Q 36.28125 30.8125 30.421875 30.8125 
L 19.671875 30.8125 
L 19.671875 0 
L 9.8125 0 
L 9.8125 72.90625 
L 32.078125 72.90625 
Q 44.578125 72.90625 50.734375 67.671875 
Q 56.890625 62.453125 56.890625 51.90625 
Q 56.890625 45.015625 53.6875 40.46875 
Q 50.484375 35.9375 44.390625 34.1875 
z
M 19.671875 64.796875 
L 19.671875 38.921875 
L 32.078125 38.921875 
Q 39.203125 38.921875 42.84375 42.21875 
Q 46.484375 45.515625 46.484375 51.90625 
Q 46.484375 58.296875 42.84375 61.546875 
Q 39.203125 64.796875 32.078125 64.796875 
z
" id="DejaVuSans-82"/>
     <path d="M 11.71875 12.40625 
L 22.015625 12.40625 
L 22.015625 0 
L 11.71875 0 
z
M 11.71875 51.703125 
L 22.015625 51.703125 
L 22.015625 39.3125 
L 11.71875 39.3125 
z
" id="DejaVuSans-58"/>
     <path d="M 9.421875 75.984375 
L 18.40625 75.984375 
L 18.40625 0 
L 9.421875 0 
z
" id="DejaVuSans-108"/>
    </defs>
    <g transform="translate(112.5525 16.318125)scale(0.12 -0.12)">
     <use xlink:href="#DejaVuSans-82"/>
     <use x="69.482422" xlink:href="#DejaVuSans-70"/>
     <use x="119.251953" xlink:href="#DejaVuSans-58"/>
     <use x="152.943359" xlink:href="#DejaVuSans-32"/>
     <use x="184.730469" xlink:href="#DejaVuSans-65"/>
     <use x="251.388672" xlink:href="#DejaVuSans-99"/>
     <use x="306.369141" xlink:href="#DejaVuSans-99"/>
     <use x="361.349609" xlink:href="#DejaVuSans-117"/>
     <use x="424.728516" xlink:href="#DejaVuSans-109"/>
     <use x="522.140625" xlink:href="#DejaVuSans-117"/>
     <use x="585.519531" xlink:href="#DejaVuSans-108"/>
     <use x="613.302734" xlink:href="#DejaVuSans-97"/>
     <use x="674.582031" xlink:href="#DejaVuSans-116"/>
     <use x="713.791016" xlink:href="#DejaVuSans-101"/>
     <use x="775.314453" xlink:href="#DejaVuSans-100"/>
     <use x="838.791016" xlink:href="#DejaVuSans-32"/>
     <use x="870.578125" xlink:href="#DejaVuSans-70"/>
     <use x="920.847656" xlink:href="#DejaVuSans-105"/>
     <use x="948.630859" xlink:href="#DejaVuSans-103"/>
     <use x="1012.107422" xlink:href="#DejaVuSans-117"/>
     <use x="1075.486328" xlink:href="#DejaVuSans-114"/>
     <use x="1114.349609" xlink:href="#DejaVuSans-101"/>
     <use x="1175.873047" xlink:href="#DejaVuSans-115"/>
     <use x="1227.972656" xlink:href="#DejaVuSans-32"/>
     <use x="1259.759766" xlink:href="#DejaVuSans-111"/>
     <use x="1320.941406" xlink:href="#DejaVuSans-102"/>
     <use x="1356.146484" xlink:href="#DejaVuSans-32"/>
     <use x="1387.933594" xlink:href="#DejaVuSans-77"/>
     <use x="1474.212891" xlink:href="#DejaVuSans-101"/>
     <use x="1535.736328" xlink:href="#DejaVuSans-114"/>
     <use x="1576.849609" xlink:href="#DejaVuSans-105"/>
     <use x="1604.632812" xlink:href="#DejaVuSans-116"/>
    </g>
    <!-- (Pointwise) -->
    <defs>
     <path d="M 19.671875 64.796875 
L 19.671875 37.40625 
L 32.078125 37.40625 
Q 38.96875 37.40625 42.71875 40.96875 
Q 46.484375 44.53125 46.484375 51.125 
Q 46.484375 57.671875 42.71875 61.234375 
Q 38.96875 64.796875 32.078125 64.796875 
z
M 9.8125 72.90625 
L 32.078125 72.90625 
Q 44.34375 72.90625 50.609375 67.359375 
Q 56.890625 61.8125 56.890625 51.125 
Q 56.890625 40.328125 50.609375 34.8125 
Q 44.34375 29.296875 32.078125 29.296875 
L 19.671875 29.296875 
L 19.671875 0 
L 9.8125 0 
z
" id="DejaVuSans-80"/>
     <path d="M 4.203125 54.6875 
L 13.1875 54.6875 
L 24.421875 12.015625 
L 35.59375 54.6875 
L 46.1875 54.6875 
L 57.421875 12.015625 
L 68.609375 54.6875 
L 77.59375 54.6875 
L 63.28125 0 
L 52.6875 0 
L 40.921875 44.828125 
L 29.109375 0 
L 18.5 0 
z
" id="DejaVuSans-119"/>
    </defs>
    <g transform="translate(178.215 29.7555)scale(0.12 -0.12)">
     <use xlink:href="#DejaVuSans-40"/>
     <use x="39.013672" xlink:href="#DejaVuSans-80"/>
     <use x="95.691406" xlink:href="#DejaVuSans-111"/>
     <use x="156.873047" xlink:href="#DejaVuSans-105"/>
     <use x="184.65625" xlink:href="#DejaVuSans-110"/>
     <use x="248.035156" xlink:href="#DejaVuSans-116"/>
     <use x="287.244141" xlink:href="#DejaVuSans-119"/>
     <use x="369.03125" xlink:href="#DejaVuSans-105"/>
     <use x="396.814453" xlink:href="#DejaVuSans-115"/>
     <use x="448.914062" xlink:href="#DejaVuSans-101"/>
     <use x="510.4375" xlink:href="#DejaVuSans-41"/>
    </g>
   </g>
   <g id="legend_1">
    <g id="patch_63">
     <path d="M 157.038281 248.1955 
L 265.324219 248.1955 
Q 267.324219 248.1955 267.324219 246.1955 
L 267.324219 188.483 
Q 267.324219 186.483 265.324219 186.483 
L 157.038281 186.483 
Q 155.038281 186.483 155.038281 188.483 
L 155.038281 246.1955 
Q 155.038281 248.1955 157.038281 248.1955 
z
" style="fill:#ffffff;opacity:0.95;stroke:#cccccc;stroke-linejoin:miter;"/>
    </g>
    <g id="patch_64">
     <path d="M 159.038281 198.081437 
L 179.038281 198.081437 
L 179.038281 191.081437 
L 159.038281 191.081437 
z
" style="fill:#ff4500;opacity:0.7;"/>
    </g>
    <g id="text_15">
     <!-- Ti -->
     <defs>
      <path d="M -0.296875 72.90625 
L 61.375 72.90625 
L 61.375 64.59375 
L 35.5 64.59375 
L 35.5 0 
L 25.59375 0 
L 25.59375 64.59375 
L -0.296875 64.59375 
z
" id="DejaVuSans-84"/>
     </defs>
     <g transform="translate(187.038281 198.081437)scale(0.1 -0.1)">
      <use xlink:href="#DejaVuSans-84"/>
      <use x="57.958984" xlink:href="#DejaVuSans-105"/>
     </g>
    </g>
    <g id="patch_65">
     <path d="M 159.038281 212.759562 
L 179.038281 212.759562 
L 179.038281 205.759562 
L 159.038281 205.759562 
z
" style="fill:#ff8c00;opacity:0.7;"/>
    </g>
    <g id="text_16">
     <!-- V -->
     <defs>
      <path d="M 28.609375 0 
L 0.78125 72.90625 
L 11.078125 72.90625 
L 34.1875 11.53125 
L 57.328125 72.90625 
L 67.578125 72.90625 
L 39.796875 0 
z
" id="DejaVuSans-86"/>
     </defs>
     <g transform="translate(187.038281 212.759562)scale(0.1 -0.1)">
      <use xlink:href="#DejaVuSans-86"/>
     </g>
    </g>
    <g id="patch_66">
     <path d="M 159.038281 227.437687 
L 179.038281 227.437687 
L 179.038281 220.437687 
L 159.038281 220.437687 
z
" style="fill:#ffd700;opacity:0.7;"/>
    </g>
    <g id="text_17">
     <!-- Cr -->
     <g transform="translate(187.038281 227.437687)scale(0.1 -0.1)">
      <use xlink:href="#DejaVuSans-67"/>
      <use x="69.824219" xlink:href="#DejaVuSans-114"/>
     </g>
    </g>
    <g id="patch_67">
     <path d="M 159.038281 242.115812 
L 179.038281 242.115812 
L 179.038281 235.115812 
L 159.038281 235.115812 
z
" style="fill:#2e8b57;opacity:0.7;"/>
    </g>
    <g id="text_18">
     <!-- Mn -->
     <g transform="translate(187.038281 242.115812)scale(0.1 -0.1)">
      <use xlink:href="#DejaVuSans-77"/>
      <use x="86.279297" xlink:href="#DejaVuSans-110"/>
     </g>
    </g>
    <g id="patch_68">
     <path d="M 222.003906 198.081437 
L 242.003906 198.081437 
L 242.003906 191.081437 
L 222.003906 191.081437 
z
" style="fill:#1e90ff;opacity:0.7;"/>
    </g>
    <g id="text_19">
     <!-- Fe -->
     <g transform="translate(250.003906 198.081437)scale(0.1 -0.1)">
      <use xlink:href="#DejaVuSans-70"/>
      <use x="52.019531" xlink:href="#DejaVuSans-101"/>
     </g>
    </g>
    <g id="patch_69">
     <path d="M 222.003906 212.759562 
L 242.003906 212.759562 
L 242.003906 205.759562 
L 222.003906 205.759562 
z
" style="fill:#000080;opacity:0.7;"/>
    </g>
    <g id="text_20">
     <!-- Co -->
     <g transform="translate(250.003906 212.759562)scale(0.1 -0.1)">
      <use xlink:href="#DejaVuSans-67"/>
      <use x="69.824219" xlink:href="#DejaVuSans-111"/>
     </g>
    </g>
    <g id="patch_70">
     <path d="M 222.003906 227.437687 
L 242.003906 227.437687 
L 242.003906 220.437687 
L 222.003906 220.437687 
z
" style="fill:#663399;opacity:0.7;"/>
    </g>
    <g id="text_21">
     <!-- Ni -->
     <g transform="translate(250.003906 227.437687)scale(0.1 -0.1)">
      <use xlink:href="#DejaVuSans-78"/>
      <use x="74.804688" xlink:href="#DejaVuSans-105"/>
     </g>
    </g>
    <g id="patch_71">
     <path d="M 222.003906 242.115812 
L 242.003906 242.115812 
L 242.003906 235.115812 
L 222.003906 235.115812 
z
" style="fill:#c71585;opacity:0.7;"/>
    </g>
    <g id="text_22">
     <!-- Cu -->
     <g transform="translate(250.003906 242.115812)scale(0.1 -0.1)">
      <use xlink:href="#DejaVuSans-67"/>
      <use x="69.824219" xlink:href="#DejaVuSans-117"/>
     </g>
    </g>
   </g>
  </g>
 </g>
 <defs>
  <clipPath id="pce23442af0">
   <rect height="217.44" width="334.8" x="43.78125" y="35.7555"/>
  </clipPath>
 </defs>
</svg>
